/* XPM */
static char *_9b1033e00df4d2de8b6f63b57313c23l2FF10JgbatYn8xZ[] = {
/* columns rows colors chars-per-pixel */
"40 40 156 2 ",
"   c #0B0B03",
".  c #03030C",
"X  c #0B0B0A",
"o  c #121206",
"O  c #12120C",
"+  c #18180D",
"@  c #030314",
"#  c #0A0A11",
"$  c #03031B",
"%  c #131314",
"&  c #1A1A14",
"*  c #13131A",
"=  c #1B1B19",
"-  c #010123",
";  c #01012C",
":  c #141425",
">  c #191924",
",  c #14142A",
"<  c #1B1B2E",
"1  c #010134",
"2  c #00003C",
"3  c #141433",
"4  c #1A1A34",
"5  c #15153A",
"6  c #31312E",
"7  c #28283B",
"8  c #010143",
"9  c #00004C",
"0  c #131344",
"q  c #191944",
"w  c #14144C",
"e  c #000054",
"r  c #00005C",
"t  c #131352",
"y  c #1C1C50",
"u  c #14145C",
"i  c #323244",
"p  c #000064",
"a  c #00006B",
"s  c #0E0E6F",
"d  c #1B1B63",
"f  c #000073",
"g  c #0E0E74",
"h  c #00007C",
"j  c #0E0E7B",
"k  c #343464",
"l  c #32326A",
"z  c #31317F",
"x  c #444453",
"c  c #44445B",
"v  c #000086",
"b  c #000087",
"n  c #000085",
"m  c #000083",
"M  c #0D0D85",
"N  c #000088",
"B  c #000089",
"V  c #00008A",
"C  c #00008B",
"Z  c #05058A",
"A  c #00008C",
"S  c #01018C",
"D  c #00008D",
"F  c #01018D",
"G  c #00008E",
"H  c #00008F",
"J  c #01018F",
"K  c #07078E",
"L  c #00008C",
"P  c #09098C",
"I  c #000090",
"U  c #010190",
"Y  c #000091",
"T  c #000092",
"R  c #000093",
"E  c #010193",
"W  c #070790",
"Q  c #070792",
"!  c #070793",
"~  c #000094",
"^  c #000095",
"/  c #010195",
"(  c #000096",
")  c #000097",
"_  c #070796",
"`  c #000093",
"'  c #0A0A95",
"]  c #000098",
"[  c #000099",
"{  c #010199",
"}  c #00009A",
"|  c #00009B",
" . c #040498",
".. c #00009C",
"X. c #00009D",
"o. c #00009E",
"O. c #00009F",
"+. c #07079E",
"@. c #00009B",
"#. c #0000A0",
"$. c #0000A1",
"%. c #0000A2",
"&. c #0000A3",
"*. c #0404A3",
"=. c #0000A4",
"-. c #0000A5",
";. c #0000A6",
":. c #0000A7",
">. c #0404A4",
",. c #0000A4",
"<. c #0000A8",
"1. c #0000A9",
"2. c #0000AA",
"3. c #0000AB",
"4. c #0404AA",
"5. c #0404AB",
"6. c #0000AC",
"7. c #0000AE",
"8. c #0000AF",
"9. c #0101AB",
"0. c #0000B0",
"q. c #0000B1",
"w. c #0000B2",
"e. c #0000B3",
"r. c #0303B0",
"t. c #0404B0",
"y. c #0404B2",
"u. c #0000B4",
"i. c #0000B5",
"p. c #0000B6",
"a. c #0000B7",
"s. c #0404B5",
"d. c #0404B6",
"f. c #0000B3",
"g. c #0000B8",
"h. c #0101B8",
"j. c #0000BA",
"k. c #0000BB",
"l. c #0000BC",
"z. c #0000BD",
"x. c #0000BF",
"c. c #0000BC",
"v. c #0000C1",
"b. c #0000C6",
"n. c #0303C6",
"m. c #0000C3",
"M. c #0000C8",
"N. c #0000CB",
"B. c MediumBlue",
"V. c #0101CB",
"C. c #0000D2",
"Z. c #0000D6",
"A. c #0000D2",
"S. c #0B0BD4",
"D. c #0101DB",
"F. c #0E0EE2",
/* pixels */
"y U S S S S S S S S S S ( g 6 ( { { o.{ o.#.o.{ o.o.o.o.#.{ { 3.d 7 ( U ( S ( y ",
"8 w.{ ( { #.( #.S o.( U B e & n.B.w.a.a.S o.3.g.{ -.g.-.-.v.v.w.8 3 b.#.#.w.3.1 ",
"8 #.h 3.o.f B ( h m a f p 8 % r 9 8 8 2 ; - ; 9 1 ; 1 1 - 1 1 ; . 5 a.3.#.#.U - ",
"8 { U M.{ m S o.{ m a a p 2 % h v m m h B v v h B S f + 3 3 3 3 = q a.-.-.v a ; ",
"8 3.o.8.3.( m -.{ B f r r 2 % 5.B.Z.w.w.8.o.3.8.a.g.S O +.3.#.o.1 4 w.o.m m m - ",
"8 o.v #.B B U a h h f h p ; % *.z.g.o.-.-.#.o.S h ( a O Q { m f - 5 a.U #.o.f @ ",
"2 U S U h U o.a r p r f a ; % 4.w.3.( 3.g.8.v p m f 9 O _ { B h $ 5 -.( B ( r @ ",
"2 ( m h S a a f r p r 2 r 1 % 4.3.-.w.-.w.w.U h B p 8 O K B B f - q v.h a h h @ ",
"2 -.m f f a p a p 9 e 9 r 1 % *.A.-.B { B m B U h p 8 O Q ( h a ; 3 f 9 8 8 8 . ",
"$ 8 1 ; ; 1 - $ $ $ $ - $ @ * 3.g.o.m o.#.B S f f p 1 O Q #.{ a ; + % % % % % * ",
"-.o.( #.( U { U o.1 U #.o.{ 8 U -.#.o.-.8.B v h r e 2 O K { U m - 5 t. .2 s.t.s.",
"z.#.{ 3.{ B { m o.2 -.v.8.U 2 ( -.w.#.B U f f p 8 r 1 O K f r a $ 5 z.U 1 w.8.w.",
"#.{ g.#.h B S f m 1 -.8.( U ; o.8.o.o.S p a p r p e 2 X Z a e 9 . 3 v r ; z.a.8.",
"#.B -.a.m B f a h 1 { #.h m - # # # # X X X X X X     + # # - 1 ; 1 2 - , z.-.o.",
"3.S S U S S f a a - -.o.a a $ 4 M g j g j g j j g g j j g < y A.z.w.z.p > z.{ { ",
"w.U S -.S B v a r ; o.S m a $ t A.w.M.Z.b.b.a.z.8.z.v.8.{ $ w B.n.z.o.9 : b.#.{ ",
"-.B S a.o.v B h p ; a e 9 r @ w z.3.B.D.b.D.z.S U U B U f . w v.a.3.{ 2 : b.g.-.",
"#.{ #.#.-.a a p e $ o O O O o t v.w.w.g.#.z.a.( h h m a p $ w A.3.o.U 2 : g.8.a.",
"{ S -.#.m p e r r $ w 4.' +.4 t a.t.3.m 8.-.U #.m S f a a @ w A.a.U -.1 : g.-.3.",
"U B B U a p f a 9 @ t g.( #.; 0 M.8.8.o.-.S m -.m a r a a . w z.{ o.8.1 , w.U S ",
"{ { v h a p a f e . t w.U v $ w v.{ { w.#.h f a a a 8 9 e . w v.-.o.3.1 , w.h h ",
"S { m h f e 9 r p . w z.{ f @ w 3.o.{ ( f a m f p r r r r . w b.8.v h 1 : v.{ U ",
"m f f f h r r 9 p $ w g.B f $ t g.( -.f r p f a r 9 9 9 9 . w A.U S B 1 , w.#.S ",
"B m f f p r 9 e e . t 8.( h - & # # #   X X X X X X X       w z.( a h 1 , g.U m ",
"h S a a p 2 1 2 8 . w a.S h $ 4 j g g g g g g g g g g g j 4 q z.w.U p - , -.h h ",
"# X o $ ; ; 1 ; ; X t w.f a @ w B.M.v.g.w.g.w.3.w.( S -.8.; 0 z.-.8.a - * 2 2 @ ",
"q P ' >.8.w.g.w.z.w q w.h h $ w b.n.z.3.8.z.{ h v ( U v B $ 0 v.U a p - : #.( 1 ",
"t M.z.B.g.w.g.o.M.2 0 g.f p $ w M.a.v.D.a.{ m f f m v h B $ w z.f p a - : B f - ",
"u v.8.M.v.o.#.w.4.8 + # X X   w g.s.w.M.v.-.#.v a p a f f - 3 p 9 2 8 @ : B f - ",
"u v.o.o.8.{ o.8.t.; 4 M s g 4 w w.b.{ { 8.3.( S B p a e 8 $ & % * % % * < w 0 # ",
"u b.-.3.o.#.-.U 3.1 t v.8.3.; q z.a.8.#.z.z.{ f h p p p e . w z.*.t.s.t.-.>.w.2 ",
"u z.3.o.w.-.h a w.1 w g.( U - 0 v.#.-.3.g.v.w.-.h e r p f $ w g.z.M.w.-.( 8.{ ; ",
"u z.{ S.F.{ o.v #.; w v.U { ; 0 v.8.{ v B w.3.U h r r e 9 @ w g.g.M.z.-.( S h - ",
"u z.a.n.n.B ( f r $ t v.-.B @ w w.w.U m h v v p m S p r 9 @ w v.o.{ -.( h f a - ",
"t g.w.o.v ( U f a $ t b.{ K - 0 g.-.a.( h f v p f #.m p r @ w z.o.( o.f p f r - ",
"u z.g.S B v 3.U h # t b.S h - 0 z.#.{ v #.B a a r a a r e . t b.-.{ a.{ f { a @ ",
"u w.v U h p K ( h $ t v.m a # w n.' *.#.S { r a p 8 8 9 8 . t b.( #.8.-.h B f @ ",
"t 3.f f h a f r a @ w 8.a a $ 0 d.+.4.{ r p r e 8 r e 8 9 @ t b.5.#.m f f a e $ ",
"u #.m h h f a h B 5 w #.h v 5 w d.+.( h h h h p p m m p a 5 y b.U U v h v f h 1 ",
"x l k k k k k k k x x k k k x c M k k l k k k k k k k k l x c l k k k k k k l i "
};
