/* XPM */
static char *_298796f34414c77f6f4925aac3da61bOJfYGhzS65k5Jez2[] = {
/* columns rows colors chars-per-pixel */
"40 40 171 2 ",
"   c #161A1A",
".  c #1B1F1F",
"X  c #3C0808",
"o  c #251313",
"O  c #2C1515",
"+  c #2D1B1B",
"@  c #331515",
"#  c #391515",
"$  c #321A1A",
"%  c #3C1A1A",
"&  c #1D2323",
"*  c #1E2A2A",
"=  c #242323",
"-  c #2C2525",
";  c #252C2C",
":  c #2B2B2B",
">  c #342424",
",  c #322D2D",
"<  c #3F2A2A",
"1  c #253232",
"2  c #2B3434",
"3  c #2B3A3A",
"4  c #343434",
"5  c #3B3434",
"6  c #333B3B",
"7  c #3D3C3C",
"8  c #440303",
"9  c #4C0303",
"0  c #430909",
"q  c #4C0A0A",
"w  c #520202",
"e  c #5C0000",
"r  c #520A0A",
"t  c #5A0A0A",
"y  c #431B1B",
"u  c #4A1C1C",
"i  c #551A1A",
"p  c #640000",
"a  c #6C0000",
"s  c #740000",
"d  c #7B0101",
"f  c #6E1111",
"g  c #741818",
"h  c #7C1E1E",
"j  c #4A2020",
"k  c #5B2424",
"l  c #542A2A",
"z  c #5A2C2C",
"x  c #403232",
"c  c #493131",
"v  c #433D3D",
"b  c #493D3D",
"n  c #553030",
"m  c #5D3333",
"M  c #5E3D3D",
"N  c #612F2F",
"B  c #772121",
"V  c #7F2626",
"C  c #742C2C",
"Z  c #7B2C2C",
"A  c #653434",
"S  c #6F3636",
"D  c #643A3A",
"F  c #6A3939",
"G  c #723636",
"H  c #793434",
"J  c #733939",
"K  c #2D4040",
"L  c #354343",
"P  c #394444",
"I  c #344D4D",
"U  c #3C4949",
"Y  c #3F5050",
"T  c #3C5959",
"R  c #444444",
"E  c #4B4242",
"W  c #454B4B",
"Q  c #4B4D4D",
"!  c #524545",
"~  c #5E4444",
"^  c #544B4B",
"/  c #5B4E4E",
"(  c #435353",
")  c #4C5252",
"_  c #475D5D",
"`  c #525353",
"'  c #5B5050",
"]  c #575858",
"[  c #624242",
"{  c #6A4444",
"}  c #654A4A",
"|  c #6B4A4A",
" . c #704545",
".. c #795656",
"X. c #830101",
"o. c #8B0101",
"O. c #840A0A",
"+. c #930000",
"@. c #9B0000",
"#. c #970F0F",
"$. c #9C0A0A",
"%. c #8D1717",
"&. c #831E1E",
"*. c #951111",
"=. c #9C1414",
"-. c #901E1E",
";. c #9D1818",
":. c #A40101",
">. c #AC0202",
",. c #AB0D0D",
"<. c #B30202",
"1. c #BB0101",
"2. c #A41414",
"3. c #AC1414",
"4. c #A11B1B",
"5. c #AC1D1D",
"6. c #B61414",
"7. c #B21414",
"8. c #BB1515",
"9. c #BD1515",
"0. c #BE1111",
"q. c #B31818",
"w. c #BB1818",
"e. c #BD1A1A",
"r. c #812727",
"t. c #852727",
"y. c #822626",
"u. c #8D2323",
"i. c #882424",
"p. c #892727",
"a. c #8C2525",
"s. c #802828",
"d. c #872828",
"f. c #802D2D",
"g. c #862D2D",
"h. c #832A2A",
"j. c #8B2828",
"k. c #8A2A2A",
"l. c #8F2828",
"z. c #8D2929",
"x. c #882C2C",
"c. c #8A2E2E",
"v. c #892B2B",
"b. c #932727",
"n. c #972626",
"m. c #942525",
"M. c #9A2626",
"N. c #922828",
"B. c #942A2A",
"V. c #942B2B",
"C. c #982929",
"Z. c #8B3030",
"A. c #8C3232",
"S. c #883232",
"D. c #923434",
"F. c #983131",
"G. c #A72424",
"H. c #AE2525",
"J. c #C50000",
"K. c #C20101",
"L. c #CD0000",
"P. c #CE0000",
"I. c #CC0101",
"U. c #C50F0F",
"Y. c #D10202",
"T. c #D90000",
"R. c #DC0000",
"E. c #C51717",
"W. c #CB1111",
"Q. c #C11B1B",
"!. c #E30000",
/* pixels */
"P L P L P P L P P R 6 L P L L P U U U P L L L 7 v U U U U L L L 3 6 L U P L P 7 ",
"C W.3.7.3.7.7.=.b ` 9.3.3.3.3.3.q.3.q.3.3.6.=.b E e.E.E.8.8.7.3.,.,.3.4.3.2.2.z ",
"k.L.:.>.:.:.>.d , ' T.@.:.@.:.:.:.<.+.:.@.1.d , ^ J.<.@.>.@.@.@.<.>.:.+.@.:.+.y ",
"f.:.o.X.@.X.o.9 , ' <.:.@.X.o.o.X.o.d o.d X.e , ^ :.X.d o.d X.+.o.o.+.+.X.o.s $ ",
"Z :.+.o.@.d o.w 4 ^ 1.@.o.o.+.X.d +.d +.X.+.p : E >.o.o.o.X.d o.@.o.+.o.o.+.d + ",
"C +.d e p e a w - E o.d e s a s p a p p e p w - E @.p a a p p a p e p p a s e % ",
"W - - ; ; ; & . 1 U c > : : + & : : & . = ; ; 3 ( 5 , , 4 5 , 5 - $ $ = : ; ; 1 ",
"n.&.&.y.t.y.h h &.B W ^ n.N.u.&.k.p.t.&.k.d.y.d.y.V c.g.Z.D.Z.k.Z v W C.N.N.B.u.",
"<.>.>.@.@.:.@.:.<.s 6  .I.>.<.>.:.>.:.>.>.+.:.:.:.:.:.>.:.<.<.1.X.5 E !.>.>.>.<.",
"X.@.o.d d o.d X.o.8 1 M >.X.o.o.d X.X.s d +.d s o.o.p +.X.d +.X.9 4 ^ >.o.@.X.+.",
"+.o.+.d X.o.o.o.o.9 1 { <.o.+.o.d d d d +.X.s o.X.s o.X.o.d +.+.e = E >.@.o.+.X.",
"X.X.p s X.X.s d o.9 6 { <.d d X.X.s d a o.d d X.X.s X.d d s o.X.e = Q :.o.p d X.",
"@ + O $ O O O $ o O L E k y % y % y i y % % @ @ @ @ % @ @ @ % % O 2 Q k $ $ $ % ",
"/ G l F A A m m l l A D D M z n z b U [ S F A l l m A D z l m m D F F D l A D E ",
"F.R.K.1.1.1.<.<.>.K.>.>.>.1.:.1.:.i T Q.Y.K.J.<.J.1.1.>.@.<.@.>.@.<.:.>.:.:.@.j ",
"y.:.+.+.d s +.+.o.@.d o.X.o.s +.X.@ ( H.>.o.X.s d o.X.X.X.d X.d +.o.X.@.o.X.e + ",
"H @.+.s d d @.d o.+.s o.X.+.s o.a @ _ G.@.o.o.X.o.o.o.s o.X.X.s +.o.+.+.X.o.p $ ",
"g.@.s s d s s d X.X.d o.s X.X.X.X.# I 5.>.X.o.X.X.d d X.a s d X.s d +.d p o.a $ ",
"A O.9 t r q r t w r r 0 0 q q q X O L C e r r q r w 9 w r r q q 8 q q q 0 t q + ",
"^ W R R 5 7 4 6 W ^ E E R Q 7 4 5 5 ! ^ v R v E R 4 4 4 R ^ E 5 5 v v v v 7 R x ",
"<.<.<.0.<.K.O.U F Y.,.1.1.>.>.>.:.>.@.<.:.,.:.>.O.R } L.1.<.1.<.<.>.,.:.>.,.:.>.",
"+.+.@.@.@.@.8 K J @.X.X.+.o.o.@.X.d X.+.X.X.o.o.p L | 1.s X.+.d +.o.X.o.o.o.o.d ",
"o.o.+.@.o.X.8 L J :.o.+.+.d o.o.X.o.s X.X.X.o.@.p P ..<.+.o.X.+.+.+.+.o.+.@.d X.",
"+.o.+.+.+.o.q L J @.+.s @.d +.+.o.X.s o.X.@.o.+.e 6 | 1.o.@.+.@.+.+.+.o.+.o.+.o.",
"9 p e w p w 8 6 D d s p s a s p p e p p e p s e 8 4 [ +.p s s s s s a a p p s e ",
"6 3 2 2 2 3 1 6 ) 6 * ; 2 6 P L 1 ; ; 6 4 4 1 2 2 P ( P 2 6 P ) P 2 ; 3 7 6 2 4 ",
"H 0.2.,.3.3.=.#.=.#.#.;.2.;.2.;.2.*.=.%.W ~ U.3.2.2.3.3.=.;.;.4.;.;.=.;.;.;.#.m ",
"c.<.o.o.o.@.+.+.X.o.+.X.X.@.X.o.+.+.o.p 3 { I.+.X.X.d X.X.+.d o.o.o.o.+.+.o.X.+ ",
"Z :.X.d d X.o.o.d X.X.o.a X.s X.d o.X.9 1 M <.X.a o.s d d X.d X.X.X.o.o.X.X.d $ ",
"d.<.X.o.X.X.o.+.o.o.d o.d o.o.o.o.+.o.p * [ K.a o.d s o.X.d d d X.+.o.+.o.o.s $ ",
"Z @.s d s X.X.d a X.s a e p s a s s d e ; { :.s s d s X.a s s a s s s d d a p % ",
"R , : , , , - 2 7 ; = - > : & & & ; & = K W x : , , - = , 5 < = ; : &   = ; ; 1 ",
"b.p.a.d.d.s.s.D.D.k.y.! ) V.u.&.u.C.B.y.V i.V d.y.s.y.s.d.~ ( S.b.b.&.f g y.s.k.",
":.@.<.+.+.+.>.+.o.@.o.> ) K.1.<.@.X.@.:.@.o.>.+.+.+.o.@.d y ( 0.@.@.@.@.@.@.@.o.",
"+.p X.X.s X.d s d d p - Q ,.s d s p X.d X.X.d d d s s d p > ( 2.X.a o.o.d X.s s ",
"X.d d d X.o.o.a d o.p > R >.s X.X.d X.d s o.d d d X.p X.p $ ( 3.o.d +.d d d s +.",
"X.+.d o.X.X.X.d o.o.s - Q $.X.+.X.d s s d d o.d o.d d X.a $ P =.X.X.d +.o.a X.X.",
"p p p e p p p p e p w > ) :.w e p p e a p p p e s p p e e + W *.w w p p a a p p ",
", , , - - , , , , , - 4 ) E 7 , , , , , , , , , = = + - - = R E > , , - = = - , ",
"` ` Q Q ) ` ` ] ` ^ ` ` ] ] ] ` ` ` ` ] ] Q ` ` Q Q Q Q ` Q Q ` Q ] ` ` ` Q ` ` "
};
