/* XPM */
static char *_1227e2edc3b46d881b394ae8e2e569eLeUJkbj9GPdOvQfq[] = {
/* columns rows colors chars-per-pixel */
"40 40 142 2 ",
"   c #161A1A",
".  c #1B1F1F",
"X  c #3C0808",
"o  c #251313",
"O  c #2C1515",
"+  c #2D1B1B",
"@  c #331515",
"#  c #391515",
"$  c #321A1A",
"%  c #3C1A1A",
"&  c #1D2323",
"*  c #1E2A2A",
"=  c #242323",
"-  c #2C2525",
";  c #252C2C",
":  c #2B2B2B",
">  c #342424",
",  c #322D2D",
"<  c #3F2A2A",
"1  c #253232",
"2  c #2B3434",
"3  c #2B3A3A",
"4  c #343434",
"5  c #3B3434",
"6  c #333B3B",
"7  c #3D3C3C",
"8  c #440303",
"9  c #4C0303",
"0  c #430909",
"q  c #4C0A0A",
"w  c #520202",
"e  c #5C0000",
"r  c #520A0A",
"t  c #5A0A0A",
"y  c #431B1B",
"u  c #4A1C1C",
"i  c #551A1A",
"p  c #640000",
"a  c #6C0000",
"s  c #740000",
"d  c #7B0101",
"f  c #6E1111",
"g  c #741818",
"h  c #7C1E1E",
"j  c #4A2020",
"k  c #5B2424",
"l  c #542A2A",
"z  c #5A2C2C",
"x  c #403232",
"c  c #493131",
"v  c #433D3D",
"b  c #493D3D",
"n  c #553030",
"m  c #5D3333",
"M  c #5E3D3D",
"N  c #612F2F",
"B  c #772121",
"V  c #7F2626",
"C  c #742C2C",
"Z  c #7B2C2C",
"A  c #653434",
"S  c #6F3636",
"D  c #643A3A",
"F  c #6A3939",
"G  c #723636",
"H  c #793434",
"J  c #733939",
"K  c #2D4040",
"L  c #354343",
"P  c #394444",
"I  c #344D4D",
"U  c #3C4949",
"Y  c #3F5050",
"T  c #3C5959",
"R  c #444444",
"E  c #4B4242",
"W  c #454B4B",
"Q  c #4B4D4D",
"!  c #524545",
"~  c #5E4444",
"^  c #544B4B",
"/  c #5B4E4E",
"(  c #435353",
")  c #4C5252",
"_  c #475D5D",
"`  c #525353",
"'  c #5B5050",
"]  c #575858",
"[  c #624242",
"{  c #6A4444",
"}  c #654A4A",
"|  c #6B4A4A",
" . c #704545",
".. c #795656",
"X. c #830101",
"o. c #8B0101",
"O. c #840A0A",
"+. c #930000",
"@. c #9B0000",
"#. c #970F0F",
"$. c #9C0A0A",
"%. c #8D1717",
"&. c #831E1E",
"*. c #951111",
"=. c #9C1414",
"-. c #901E1E",
";. c #9D1818",
":. c #A40101",
">. c #AC0202",
",. c #AB0D0D",
"<. c #B30202",
"1. c #BB0101",
"2. c #A41414",
"3. c #AC1414",
"4. c #A11B1B",
"5. c #AC1D1D",
"6. c #B21414",
"7. c #BD1313",
"8. c #B31818",
"9. c #BC1919",
"0. c #822626",
"q. c #8B2525",
"w. c #842A2A",
"e. c #8A2A2A",
"r. c #952626",
"t. c #9A2626",
"y. c #932A2A",
"u. c #982929",
"i. c #8A3131",
"p. c #923434",
"a. c #983131",
"s. c #A72424",
"d. c #AE2525",
"f. c #C20101",
"g. c #CD0101",
"h. c #C50F0F",
"j. c #D10202",
"k. c #DB0000",
"l. c #C51717",
"z. c #CB1111",
"x. c #C11B1B",
"c. c #E30000",
/* pixels */
"P L L L P P L P P R 6 L L L P P U U U L L L L v 7 U U U U L L L 3 6 L U P L P 6 ",
"C z.3.6.3.8.6.=.b ` 7.3.3.6.3.3.8.8.8.3.3.6.2.v E 9.l.x.9.7.8.3.,.,.3.4.3.2.2.z ",
"e.g.:.<.:.:.:.d , / k.@.:.@.@.@.:.<.+.:.@.1.d 4 ! f.<.@.<.@.@.@.<.>.:.+.@.:.+.y ",
"Z :.o.X.@.X.o.w 4 ' <.@.@.X.+.o.X.o.d o.d X.e > ^ :.o.d X.d X.o.o.o.+.+.X.o.s $ ",
"Z :.+.o.@.X.o.9 , ^ 1.:.o.o.+.X.d +.d o.X.+.p : E >.+.X.o.X.s o.+.o.+.o.o.+.d $ ",
"C +.d e p e a w - E +.s e s a s e a a p e a w - E +.a a s a p a a e a e a s p $ ",
"W > - ; ; ; & . 1 U c > : : + & - : & . * : : 3 ( 5 , , 4 5 , 5 : + $ = : ; ; 1 ",
"r.&.&.0.0.0.h h 0.B W ! t.y.q.&.e.e.q.&.0.0.V w.0.0.i.w.i.p.e.e.V v W y.r.y.y.q.",
"<.:.<.@.@.:.@.:.<.s 6 { g.<.<.>.:.>.:.:.:.+.:.:.:.:.:.:.:.>.<.1.X.5 E c.>.>.:.1.",
"X.@.o.d d o.d X.o.8 2 D :.X.o.o.d X.X.d X.o.d d o.o.a o.o.d +.X.w 2 ^ >.o.@.X.+.",
"+.o.+.d X.o.o.o.o.9 1 [ <.o.+.o.d d d d +.X.s o.X.s o.X.o.X.+.+.e = E >.@.o.@.X.",
"X.X.p s X.X.s d X.9 4 | <.d d X.X.s d a X.X.d X.d d X.d d s o.X.e = ! :.o.p s X.",
"@ + O $ O O O $ o O L E k % % % y y u u % % $ O @ @ $ % @ @ $ % + 2 W k @ $ + % ",
"/ G z F A N m m l z A F D M m n z b Y D S A A z k N A F z l m m F F F D z D A ! ",
"a.k.f.1.1.1.<.<.>.f.>.>.>.1.:.f.:.i T 9.j.f.f.<.f.1.1.:.@.>.@.<.@.<.:.:.:.:.@.u ",
"V :.+.+.d s +.+.o.@.d o.X.+.a +.X.@ ( d.>.o.o.s d o.d X.o.d X.d +.o.X.@.o.X.w + ",
"H @.+.s s d +.d o.+.s o.X.+.s X.a @ _ s.@.o.o.X.o.o.o.s o.X.X.s +.o.+.+.X.o.p $ ",
"w.@.s s d d d d X.X.d o.s X.X.X.X.@ I 5.>.X.o.X.X.d d X.a s d X.s d +.d p X.a $ ",
"A O.9 t r q q t w r q 0 q 0 q q X $ P Z e r r q r w 9 w r r q q 8 q q q 0 t q + ",
"^ Q R R 5 7 5 6 W ^ Q E E E v 4 x , ! Q v R v E R 4 4 4 R ! E 5 5 v v v v v b v ",
"<.<.,.f.<.f.O.U J j.,.<.1.>.>.>.:.>.@.<.:.,.:.>.o.R } g.1.<.1.<.<.>.,.>.>.,.:.>.",
"+.+.@.@.@.@.8 K J @.X.o.+.o.o.@.X.d X.o.X.X.o.o.p L | 1.s X.$.d +.o.X.X.o.o.o.d ",
"o.o.@.+.o.X.8 L J :.X.+.+.d o.o.X.o.s o.o.X.o.@.e P ..<.+.o.X.+.@.+.+.o.+.@.d X.",
"+.o.+.+.+.o.q L J @.+.s @.d +.+.o.X.s o.d @.o.+.e 6 | 1.o.@.o.@.o.+.+.o.+.o.+.o.",
"9 p e e e w 8 L D d s a a a s p p e p p e p s e 8 4 [ +.p a d s s s a a a p s e ",
"6 3 2 2 3 2 ; 6 ` 6 ; ; 2 6 P P 1 ; ; 6 4 4 1 2 2 U ) P 2 6 P ) P 3 ; 3 6 6 2 4 ",
"H 7.2.,.3.3.*.#.*.*.*.=.=.=.=.;.=.*.=.%.W ~ h.3.2.3.3.3.=.;.;.;.=.=.*.;.=.;.=.m ",
"e.<.o.o.o.@.+.+.d +.o.o.o.@.X.o.@.+.o.p 3 { g.+.d X.s X.X.+.d o.o.o.+.+.+.o.d $ ",
"w.:.X.d d d o.o.d X.X.o.a X.s X.d o.X.9 1 M <.X.a o.s d d X.d X.X.X.o.o.X.X.d $ ",
"w.<.X.o.X.o.o.+.o.o.X.X.d o.o.o.o.+.o.p * [ f.a o.d s o.X.d d d X.+.o.+.o.o.s $ ",
"Z @.s d s X.X.d s X.a a e a s a s s d e ; { :.s s d s X.a s s a s s s d d a p @ ",
"R , : , , : > 2 6 1 = + > : * . & ; = * K W x : , , : = , 5 < = ; : &   * : : 1 ",
"q.q.e.e.w.w.0.a.p.e.0.! ) y.q.&.q.y.y.0.V 0.0.w.0.0.0.w.w.~ ( i.r.q.&.f g 0.w.e.",
":.@.<.+.+.@.:.+.o.@.o.> Q f.1.<.@.X.@.:.@.o.:.@.+.+.o.@.d y ( 7.@.@.@.@.@.@.@.o.",
"+.p X.X.s d d s s d p - Q ,.s X.s p d X.X.X.X.s d s s d a > ) =.X.a o.o.d X.s s ",
"X.d d d X.o.o.a d +.p : R >.s X.o.d X.s d X.d d d X.p X.e $ ( 3.o.d +.d d d s o.",
"X.+.d o.X.X.d d o.o.s - Q ,.d +.X.X.s s X.s o.d o.d d d a $ P 2.X.X.s +.+.a X.X.",
"a p p e p p a a e p w > ) $.w e p p e a a p p p s p p p e @ U *.w e p p a a a p ",
": > , - > 4 : , , > , 4 ) E 5 , , 4 , 4 , : , , = = + - : = R ! - 4 , > = = - , ",
") ` ` W ) ` ` ` ` ) ` ` ` ] ] ` ` ` ` ` ` Q ` ` Q Q Q Q ) Q Q ` Q ` ` ` ) Q ` ` "
};
