/* XPM */
static char *_439fa5c86984315fd36d793a39aee58NA1sg2y8mlGaz3Y3[] = {
/* columns rows colors chars-per-pixel */
"64 64 194 2 ",
"   c #202020",
".  c #2C2C2C",
"X  c gray22",
"o  c #400000",
"O  c #4C0000",
"+  c #580000",
"@  c #640000",
"#  c #700000",
"$  c #7C0000",
"%  c #585400",
"&  c #706C00",
"*  c gray25",
"=  c #484848",
"-  c gray33",
";  c #646464",
":  c gray44",
">  c #7C7C7C",
",  c #880000",
"<  c #980000",
"1  c #A40000",
"2  c #B00000",
"3  c #BC0000",
"4  c #C80000",
"5  c #D40000",
"6  c #D4060E",
"7  c #D70D14",
"8  c #D6131B",
"9  c #D9161C",
"0  c #E00000",
"q  c #EC0000",
"w  c #EB0509",
"e  c #FC0000",
"r  c #E30C11",
"t  c #E8161B",
"y  c #E3191E",
"u  c #D71C23",
"i  c #D91D25",
"p  c #E41D22",
"a  c #EB1D22",
"s  c #D72027",
"d  c #DB2127",
"f  c #DA252B",
"g  c #DB282E",
"h  c #DA2B32",
"j  c #DD3237",
"k  c #DC353B",
"l  c #DD393E",
"z  c #E32126",
"x  c #EC2226",
"c  c #E4252A",
"v  c #ED262A",
"b  c #E5292E",
"n  c #EC2A2E",
"m  c #FC2020",
"M  c #E22E34",
"N  c #EC2D31",
"B  c #E4353A",
"V  c #E9373B",
"C  c #DD3C42",
"Z  c #E33C42",
"A  c #EF3F42",
"S  c #A86840",
"D  c #DA4349",
"F  c #DE454B",
"G  c #D64A4F",
"H  c #DE4A4E",
"J  c #CF4C51",
"K  c #D44E53",
"L  c #D74B56",
"P  c #DA4C51",
"I  c #CD5459",
"U  c #DB5155",
"Y  c #D55359",
"T  c #E44449",
"R  c #EB4549",
"E  c #EA4A4D",
"W  c #F14A4D",
"Q  c #E14D53",
"!  c #ED4D51",
"~  c #F14C50",
"^  c #EC5356",
"/  c #E1555B",
"(  c #E85458",
")  c #E4595D",
"_  c #EB595D",
"`  c #F05457",
"'  c #CA5E64",
"]  c #D75E63",
"[  c #E45C61",
"{  c #EC5D61",
"}  c #C96067",
"|  c #C37B7E",
" . c #CB7A7F",
".. c #E4656A",
"X. c #E9666A",
"o. c #EC6669",
"O. c #E5696E",
"+. c #F26A6D",
"@. c #E56C72",
"#. c #EB6E71",
"$. c #EA7477",
"%. c #E67579",
"&. c #E7797D",
"*. c #EA797D",
"=. c #F27376",
"-. c #F4797B",
";. c #909000",
":. c #ECAD1B",
">. c #DFAF3F",
",. c #E8AE27",
"<. c #E7B028",
"1. c #E3AD35",
"2. c #CCC400",
"3. c #E4D800",
"4. c #FCF400",
"5. c #E88C58",
"6. c #D7B157",
"7. c #D8B054",
"8. c #D1B066",
"9. c #CCB273",
"0. c #C9B17A",
"q. c #C27E82",
"w. c #CA7F81",
"e. c #E77C80",
"r. c #E97D82",
"t. c #F27E81",
"y. c #868686",
"u. c #8C8C8C",
"i. c #989898",
"p. c #BE8D8F",
"a. c #BD9799",
"s. c #BFB496",
"d. c #BDB39C",
"f. c #B99FA1",
"g. c #A4A4A4",
"h. c #A9A9A9",
"j. c #B9A3A4",
"k. c #B6AEAE",
"l. c #BAB4A3",
"z. c #B6B4AE",
"x. c #B8B3A9",
"c. c #B5AFB0",
"v. c #B4B4B4",
"b. c #BBBBBB",
"n. c #C18284",
"m. c #C58687",
"M. c #C38F91",
"N. c #EB8286",
"B. c #EB868A",
"V. c #EB8A8E",
"C. c #F38487",
"Z. c #F38B8D",
"A. c #EB8E91",
"S. c #F28E91",
"D. c #EC9296",
"F. c #EC9599",
"G. c #EE9A9D",
"H. c #F49395",
"J. c #F5999B",
"K. c #C6B386",
"L. c #C0B494",
"P. c #EE9EA1",
"I. c #F19EA0",
"U. c #EEA2A5",
"Y. c #EFA8AA",
"T. c #F2A6A8",
"R. c #F3AAAC",
"E. c #F1AFB1",
"W. c #F4B3B5",
"Q. c #F5B7B9",
"!. c #F4BABC",
"~. c #F4BFC1",
"^. c #F8BFC0",
"/. c #C0C0C0",
"(. c #CACACA",
"). c #D0D0D0",
"_. c #F4C3C5",
"`. c #F9C2C3",
"'. c #F6C7C8",
"]. c #F6CACC",
"[. c #F9CBCD",
"{. c #F7CFD0",
"}. c #F7D1D2",
"|. c #F9D4D5",
" X c #F7D7D8",
".X c #F9D7D9",
"XX c #F9DBDC",
"oX c #FADFE0",
"OX c #FBE2E3",
"+X c #FBE7E8",
"@X c #FCECEC",
"#X c #FCEFF0",
"$X c #FDF3F4",
"%X c #FFFEFE",
/* pixels */
"X X X X X X X X X X X X X X X X X X X X X X X X X X X X X X X X X X X X X X X X X X X X X X X X X X X X X X X X X X X X X X X X ",
"- X - = = = = = - = = = = = = - = X = = = = = = = - - - - - - = = = = = = = = = - - - - - - - = = = = X X X = = - - = = = = = X ",
"X q q 5 5 5 5 6 5 5 5 5 1 = = - q q 5 5 5 5 5 5 5 5 5 5 5 5 5 5 5 5 5 5 1 = X - q q q q 0 0 0 0 0 0 5 5 5 5 5 4 4 4 4 3 3 3 1 = ",
"= 4.4 2 2 5 , 1 5 , 4 1 @ . = - q 3 , 3 , 3 , 3 $ 3 < 3 < 3 $ 3 $ 3 4 1 # . = X 5 1 4 2 4 2 2 4 # 4 $ 4 2 4 , 2 1 $ 4 < 4 1 4.. ",
"3.2.;.v.v.v.v.v.v.v.v.v.v.v.v.v.v.v.v.v.v.v.v.v.v.v.v.v.v.v.v.v.v.v.v.v.v.v.v.v.v.v.v.v.v.v.v.v.v.v.v.v.v.v.v.v.v.v.v.v.v.2.2.& ",
"S ;.% : : > > > > > > > > > > > > > > > > > > > > > > > > > > > > > > > > > > > > > > > > > > > > > > > > > > > > > : : : & 5.% ",
"= % 1 > > > > i.i.i.i.i.i.i.i.i.i.i.i.i.i.i.i.i.i.i.i.i.i.i.i.i.i.i.i.i.i.i.i.i.i.i.i.i.i.i.i.i.i.i.i.i.i.i.i.i.i.> : > > + S . ",
"= 4 $ i.> x 1 o o - # # # # # # # # # # # # # # # # # # # # # # # # # # # # # # # # # # # # # # # # 1 2 e 0 > o o o > /.: + o . ",
"= 3 1 h.> 1 /.i.: o > g.b.b.v.b.v.v.v.v.v.v.v.v.v.v.v.v.L.8.v.v.v.v.0.K.v.v.v.v.v.v.v.v.v.v.v.v.b.v.b.b./.> o > : i.m > : + o . ",
"= $ @ v.i.o i.b.i.y.g.v.v.v.v.v.v.v.v.v.v.v.v.v.v.v.k.9.>.:.8.L.x.8.,.<.8.x.v.v.v.v.v.v.v.v.v.v.v.v.v.v.h.h.h.: h.).1 : > o o . ",
"= = . ).h.o i.v.v.v.v.v.v.v.v.v.v.v.v.v.v.v.v.v.v.v.v.9.:.:.1.l.x.7.:.:.6.z.v.v.v.v.v.v.v.v.v.v.v.v.v.v.v.i.i.h.).> o > i.    . ",
"- X X ).v.- > v.v.v.v.v.v.v.v.v.v.v.v.v.v.v.v.v.v.v.c.l.,.1.6.v.z.9.,.,.K.v.v.v.v.v.v.v.v.v.v.v.v.v.v.v.v.g.h.)./.; - u.h.  . . ",
"q 5 5 v.).o y.v.v.v.v.v.v.v.v.v.v.v.v.v.v.v.v.v.v.v.v.l.L.c.L.v.v.s.l.d.d.v.v.v.v.v.v.v.v.v.v.v.v.v.v.v.v.v././.h.> o i.h.+ + 5 ",
"2 , , v.).# g.v.v.v.v.v.v.v.v.v.v.v.v.v.v.v.v.v.v.v.v.v.v.c.v.k.k.v.v.v.v.v.v.v.v.v.v.v.v.v.v.v.v.v.v.v.v.v.v.h.u.> o h.v.+ + 2 ",
", 1 , v.).2 h.v.v.v.v.v.v.v.v.v.v.v.v.v.v.v.v.v.v.v.f.w.[ Q Z Z V V Q ]  .M.b.v.v.v.v.v.v.v.v.v.v.v.v.v.v.v.v.i.> u.# h.v.+ + < ",
"# 1 1 v.v.< v.v.v.v.v.v.v.v.v.v.v.v.v.v.v.v.v.k.w.E n a t a v v N V x v x N U n.v.v.v.v.v.v.v.v.v.v.v.v.v.v.v.g.> u.# h.v.+ + $ ",
"1 , , v.v., b.v.v.v.v.v.v.v.v.v.v.v.v.v.v.v.0.Z v v x +.R.t.n m v Z.=.m N v v v Z 0.v.v.v.v.v.v.v.v.v.v.v.v.v.h.u.u.# h.v.+ + $ ",
"# 1 @ v.v.# (.v.v.v.v.v.v.v.v.v.v.v.v.v.j.Q x t v a H.[.H.oX~ v W x A Z.H.a v v a v U f.v.v.v.v.v.v.v.v.v.v.v.v.u.i.# v.v.+ + , ",
"# 2 @ v.v.# (.v.v.v.v.v.v.v.v.v.v.v.v.M.A A a A ~ n $X^.A v x ~ $Xt.w ^.H.t a v x x R E M.v.v.v.v.v.v.v.v.v.v.v.i.h.# v.v.+ + # ",
"o O O v.v.# (.v.v.v.v.v.v.v.v.v.v.v.m.^ t.x A ^.A t A $X[.a v x ` |.~ Q.t.V =.E x v v =.^ m.v.v.v.v.v.v.v.v.v.v.h.h.# v.v.o + o ",
". . . v.v.# v.v.v.v.v.v.v.v.v.v.v.M.! R.v a A #XJ.t.R.@X_ a a t a oXH.Q.-.^ ` n a v t n R.^ M.v.v.v.v.v.v.v.v.v.h.h.# v.v.    . ",
"- - = v.v.# v.v.v.v.v.v.v.v.v.v.f.Z |.~ a c t t.[.oXR.A a W.S.H.oX^.N `.o.A { n o.N t.x E |.R j.v.v.v.v.v.v.v.v.v.h.# v.v.  . . ",
"- q q /./.$ b.v.v.v.v.v.v.v.v.v.L ^.R.y x A Z r { o.! a p R.oX^.#.a a |.{ a a E [.S.%X{ r T.`.G v.v.v.v.v.v.v.v.v.h.# v.v.+ + . ",
"- q , ).).< (.v.v.v.v.v.v.v.v.| t.%XA p p W.oXZ { Q A c b N ^ p p t.` Q.^.{ { ~.J.Z.$X^.t E %X=.n.v.v.v.v.v.v.v.v.h.$ v.v.+ o . ",
"X q 2 /./., /.v.v.v.v.v.v.v.v.F +X].p c c T oXW.y =.B c z Z $XZ.p @XX.B '.+XOXT.z E %X$XV y ].+XF k.v.v.v.v.v.v.v.h.$ v.v.+ o . ",
"= 3 @ v.v.$ v.v.v.v.v.v.v.v.| C.%XC.p c c y M #XZ.|.E z b z =.oXZ oXX.t p B b p z B OX%XB.r Z.%XN.n.v.v.v.v.v.v.v.v., v.v.+ o . ",
"= 3 2 v.v.# v.v.v.v.v.v.v.v.K XX%X{ M P.M M _ #XC.[.Q M p f 7 t.H.|.o.y S.}.Z p f B Q.Q..X9 o.%X.XG v.v.v.v.v.v.v.b.< /./.+ o . ",
"- 3 # h.h.# h.v.v.v.v.v.v.a.) %X%XT M OX+XOXOXH.M [.*.R.M Z { ~.$.|.{ @.[.t.I.9 z Z.W.T #XV T %X%X) a.v.v.v.v.v.v.(.< ).).+ o . ",
"= 4 1 h.g.@ h.v.v.v.v.v.v.q.D.%X#XZ i Z { Q M 9 b ].O.|.+XoX|.r.c XX( X.$X{.#X`.OX#X{ f XXX.k $X%XA.| v.v.v.v.v.v.b.< /./.+ o . ",
"= 1 < i.i.O g.v.v.v.v.v.v.' _.%X#XZ d d i z d *.T ]._ f Q T b i g XX[ 9 Q oX].W.A.l ) ) ~.*.B $X%X_.' v.v.v.v.v.v.b., /./.+ o . ",
"= = X h.h.+ h.v.v.v.v.v.v.K XX%X$XT f l g g f V.j }...d d d j Q h .X) j A.A.u i T.W.d g OX) T $X%XXXK v.v.v.v.v.v.v.$ v.v.    . ",
"- - - h.h.@ h.v.v.v.v.v.v.K @X%X%X/ C N.9 g M C s N.l ....9 j 5.'.$X|.[.r.i u H.@X+XT V.}.s ) %X%X@XG v.v.v.v.v.v.v.# v.v.  . . ",
"3 3 3 v.v.# v.v.v.v.v.v.v.U $X%X%X&.D  X[ k f u j U s f P G.!.%.C XXe.h s h u T.&.&.OX}.C 8 B.%X%X#XK v.v.v.v.v.v.v.# v.v.+ + 3 ",
"1 2 1 v.v.# v.v.v.v.v.v.v.I $X%X%X~.9 G.$XY u k U.OXV.U U.G k }.C '.H 8 U G.8 D.U.W.+Xk s s ~.%X%X$XP v.v.v.v.v.v.h.@ h.h.+ + 1 ",
"1 $ , v.v.# v.v.v.v.v.v.v.L @X%X%X$XC 8 G.D h {.[ f .X%XP.V.~._.h }.&.f N.'.9 Y.@X&.E.k s D $X%X%X+XK v.v.v.v.v.v.g.+ i.i.+ + # ",
", $ 1 v.v.# v.v.v.v.v.v.v.I XX%X%X%XD.8 G.g j {.~.g ) F.U.A.O.h u F.%X+X X/ s E.U.6 D.P 8 D.%X%X%XXXI v.v.v.v.v.v.u.O u.u.+ + # ",
"1 , $ v.v.# v.v.v.v.v.v.v.' ~.%X%X%X@Xk !.%.u 8 P.U.8 8 u u u f g g / @.U l 9 %.P.8 A.G k #X%X%X%X_.' v.v.v.v.v.v.i.+ i.i.+ + , ",
"1 , $ v.v.$ v.v.v.v.v.v.v.q.A.%X%X%X%XY.[ %X{.Y.XXV.h ] C f h f h h 9 Y ..P i E.&.u Q.h W.%X%X%X%XV.| v.v.v.v.v.h.i.@ i.i.+ + # ",
"# # , v.v.$ v.v.v.v.v.v.v.f./ %X%X%X%X$X%.D Y.}.G.g @./ f h h h h i k B.Q.}.+X_.h E.&.e.%X%X%X%X%XY j.v.v.v.v.v.v.h.@ h.h.+ + # ",
"o o O v.v., v.v.v.v.v.v.v.v.J oX%X%X%XD.e.O.7 i i f i f h i h h i P {.}.E.F.%.@.~.B.&.G.G.%X%X%X XJ v.v.v.v.v.v.v.v.@ v.v.+ + o ",
". . . /./., /.b.v.v.v.v.v.v.q.r.%X%X%XY l OXA.i i C P h C Q f i Q !.Q s u u O.A.P ....C D.$X%X%Xr.n.v.v.v.v.v.v.v.v.# v.v.    . ",
"- = - ).).1 ).(.v.v.v.v.v.v.c.G OX%XOXs !.$X{.U.C i O.V.[ T.u F _.F u h h f u k A.F %.@X%XW.U ].G v.v.v.v.v.v.v.v.v.# v.v.  . . ",
"X q 5 /./.< /./.v.v.v.v.v.v.v.q.%.$XO.g ..C u U.@XA.C u u Q.{.}./ u f u i C A.+XQ O.%X%X%X[ ..@.n.v.v.v.v.v.v.v.b./., /./.+ + . ",
"- 5 1 v.v.< v.v.v.v.v.v.v.v.v.v.J Q.e.u / r.u T.%X_.E.E.%.[ B.[ k T / e.W.#X%XE.8 .X%X%XD.C P.Y v.v.v.v.v.v.v.v.b./., /./.+ o . ",
"= 5 1 v.v., v.v.v.v.v.v.v.v.v.v.f.G {.!.%X|.u P.B.i D XX%X%XoXR.Y..X%X%X%X%X%XB.9 D.].%.u V.L j.v.v.v.v.v.v.v.v.).).< ).).+ o . ",
"= 5 , v.v., v.v.v.v.v.v.v.v.v.v.v.p.H +X%Xe.i i C Y.$X%X%X%X#Xh 8 A.%X%X%X%X%X$.7 u u h V.L p.v.v.v.v.v.v.v.v.b././.< /./.+ o . ",
"X 5 1 v.v.$ v.v.v.v.v.v.v.v.v.v.v.v.p.G XXP.h P.%X%X%X%X%X%X@.C F i ~.%X%X%X%X!.V.r.P.Q.Y p.v.v.v.v.v.v.v.v.v.v././., /./.+ o . ",
"- 5 1 h.h.# h.h.h.v.v.v.v.v.v.v.v.v.v.a.D !.oX%X$X~.%X%X%XB.6 P.E.8 h |.%X%XXX#X%X%X!.G a.v.v.v.v.v.v.v.v.v.v.v.v.v.# v.v.+ o . ",
"X 4 1 h.h.# h.h.h.h.v.v.v.v.v.v.v.v.v.v.j.I &.oX#Xr.%X$XI.i A.[ / r.f C .X%XA._.XXO.I j.v.v.v.v.v.v.v.v.v.v.v.v.v.v.# v.v.+ o . ",
"- 1 @ v.v.# v.v.v.v.v.v.v.v.v.v.v.v.v.v.v.v.q.G r..X%XoXQ @.%X$X$X%XF.f r.%X{.r.G p.v.v.v.v.v.v.v.v.v.v.v.v.v.v.v.v.# v.v.o o . ",
"X = . v.v.# i.v.v.v.v.v.v.v.v.v.v.v.v.v.v.v.v.k.q.K Y H.!.].@X$X$X@X~.P.V./ K q.c.v.v.v.v.v.v.v.v.v.v.v.v.v.v.v.v.i.# v.v.    . ",
"- X - v.v.# > v.v.v.v.v.v.v.v.v.v.v.v.v.v.v.v.v.v.v.f.q.' I Y L L L ' } q.f.v.v.v.v.v.v.v.v.v.v.v.v.v.v.v.v.v.v.v.> # v.v.  . . ",
"5 5 5 v.v.> # > i.v.v.v.v.v.v.v.v.v.v.v.v.v.v.v.v.v.v.v.v.v.v.v.v.v.v.v.v.v.v.v.v.v.v.v.v.v.v.v.v.v.v.v.v.v.v.i.> # > v.v.+ + 3 ",
"$ 1 + > v.v.> # # # > i.v.v.v.v.v.v.v.v.v.v.v.v.v.v.v.K.v.v.v.z.v.v.v.x.s.v.v.v.v.v.v.v.v.v.v.v.v.v.v.v.i.u.# # # > i.v.> + + # ",
"1 $ $ + > v.v.v.i.> # # # # > i.v.v.v.v.v.v.v.v.v.v.9.:.7.z.d.7.6.l.l.1.,.K.v.v.v.v.v.v.v.v.v.v.i.> # # # # u.i.v.v.v.> + + + O ",
"1 $ + + + - > v.v.v.v.v.i.> # # # > i.v.v.v.v.v.v.v.K.,.6.v.d.:.,.l.k.>.,.d.v.v.v.v.v.v.v.i.> # # # > i.v.v.v.v.v.> - + + + # , ",
"$ < + + + + + - > v.v.v.v.v.v.i.> # # # > i.v.v.v.v.x.d.l.v.z.9.9.v.v.d.L.v.v.v.v.v.i.> # # # > i.v.v.v.v.v.> - + + + + + @ # 1 ",
"@ 1 $ 1 @ + @ + + + + - > v.v.v.v.v.i.> # # # > i.v.v.v.v.v.v.v.v.v.v.v.v.v.v.i.> # # # > i.v.v.v.v.v.> - + + + + + + # + 1 # 1 ",
"@ 1 $ $ @ < < @ + + + + + + - > v.v.v.v.v.i.> # # # # > i.v.v.v.v.v.v.i.> # # # # > i.v.v.v.v.v.> - + + + + + + + # 1 # + @ 1 O ",
"$ < + 1 @ @ , @ $ $ 1 + + + + + + o - > v.v.v.v.v.i.> # # # > i.i.> # # # > i.v.v.v.v.v.> - o . . . + + + + 1 + 1 # 1 # 1 @ 1 # ",
"O O O O O O O O O O O O O O O O o o     . - > v.v.v.v.v.i.> # # # # > i.v.v.v.v.> - O O O o o   . . + o o O O O O O O O O O O O ",
". . . . . . . . . . . . . . . . . . .           . - > v.v.v.v.v.v.v.v.v.v.> -           .       . . . . . . . . .           . . ",
"X - X - X X X = = = = = - X X X X . . . . . . .           - > v.v.> - .           . . . . . . . . X X = = - = = = = * X * = = = ",
"- - - - - - - - - - - - - - - - - - - = X X X . .                                   . X X X = = - - - - - - - - - - - - - - - - "
};
