/* XPM */
static char *_0e64b60fb6b40ba9ead46c242773e51NqzTng5ZHPSL37Yj[] = {
/* columns rows colors chars-per-pixel */
"40 40 222 2 ",
"   c #2C1717",
".  c #341516",
"X  c #3D1011",
"o  c #3C1B1B",
"O  c #242424",
"+  c #292626",
"@  c #272929",
"#  c #2C2C2C",
"$  c #352E2E",
"%  c #3A2E2E",
"&  c #2F302F",
"*  c #2E3232",
"=  c #333434",
"-  c #3B3434",
";  c #373837",
":  c #353938",
">  c #3B3B3B",
",  c #4E0A0C",
"<  c #570608",
"1  c #451717",
"2  c #561B1D",
"3  c #630508",
"4  c #750306",
"5  c #7B0405",
"6  c #720D11",
"7  c #64191C",
"8  c #741214",
"9  c #75191C",
"0  c #5D1F20",
"q  c #671E21",
"w  c #781E21",
"e  c #492727",
"r  c #562627",
"t  c #433435",
"y  c #4A3435",
"u  c #433D3D",
"i  c #4B3B3C",
"p  c #563637",
"a  c #65292A",
"s  c #7B2628",
"d  c #742B2C",
"f  c #702F30",
"g  c #6B3435",
"h  c #663839",
"j  c #6B3C3D",
"k  c #743233",
"l  c #7B3B3D",
"z  c #413F40",
"x  c #6C3E40",
"c  c #3F4141",
"v  c #434444",
"b  c #494545",
"n  c #464A4A",
"m  c #4B4B4B",
"M  c #564546",
"N  c #5D4C4D",
"B  c #5B4F50",
"V  c #4F5050",
"C  c #535454",
"Z  c #5C5656",
"A  c #575959",
"S  c #5B5C5C",
"D  c #644849",
"F  c #744648",
"G  c #784849",
"H  c #644F50",
"J  c #7C4E50",
"K  c #635455",
"L  c #655B5B",
"P  c #6D5E5E",
"I  c #775355",
"U  c #745959",
"Y  c #7B5A5B",
"T  c #735F60",
"R  c #5E6262",
"E  c #646464",
"W  c #6A6363",
"Q  c #676868",
"!  c #6C6C6C",
"~  c #796667",
"^  c #716C6C",
"/  c #6E7070",
"(  c #747474",
")  c #7C7474",
"_  c #767878",
"`  c #7B7B7B",
"'  c #8C0203",
"]  c #870608",
"[  c #940203",
"{  c #990203",
"}  c #990509",
"|  c #95090C",
" . c #9A0A0D",
".. c #820E10",
"X. c #980D10",
"o. c #851315",
"O. c #891517",
"+. c #8B1A1B",
"@. c #991518",
"#. c #931B1D",
"$. c #A30002",
"%. c #AB0003",
"&. c #A70408",
"*. c #A0090D",
"=. c #B20003",
"-. c #BC0004",
";. c #B6040B",
":. c #A9161C",
">. c #A41A1D",
",. c #B7151C",
"<. c #8F1F21",
"1. c #A91C21",
"2. c #B11B21",
"3. c #812325",
"4. c #872628",
"5. c #982629",
"6. c #8E2E31",
"7. c #87383A",
"8. c #96373A",
"9. c #A72629",
"0. c #B62B2F",
"q. c #A92C30",
"w. c #B82D32",
"e. c #AE3135",
"r. c #A53539",
"t. c #B73338",
"y. c #CC0209",
"u. c #C80A11",
"i. c #C3161E",
"p. c #C41C24",
"a. c #CE2B31",
"s. c #D22C32",
"d. c #9C3E41",
"f. c #AE3F44",
"g. c #B83B40",
"h. c #8B4647",
"j. c #874749",
"k. c #954446",
"l. c #97494A",
"z. c #8A5253",
"x. c #8D5759",
"c. c #84585A",
"v. c #945152",
"b. c #9C5758",
"n. c #935C5D",
"m. c #A8474A",
"M. c #B4484D",
"N. c #AF4F52",
"B. c #B74D52",
"V. c #A55558",
"C. c #B45356",
"Z. c #B5565A",
"A. c #965F61",
"S. c #A65E61",
"D. c #846363",
"F. c #8D6666",
"G. c #856C6C",
"H. c #8B6B6C",
"J. c #946263",
"K. c #9C6263",
"L. c #926B6B",
"P. c #9C6C6D",
"I. c #837474",
"U. c #8D7373",
"Y. c #847A7B",
"T. c #8C7A7B",
"R. c #9B7272",
"E. c #997677",
"W. c #947C7C",
"Q. c #A86567",
"!. c #A56C6E",
"~. c #BA6568",
"^. c #B36D71",
"/. c #A67274",
"(. c #A9787A",
"). c #AB7B7D",
"_. c #B77274",
"`. c #C64C51",
"'. c #C95F64",
"]. c #C9767A",
"[. c #B47E80",
"{. c #C87C80",
"}. c #7F8080",
"|. c #838484",
" X c #8A8484",
".X c #868A8A",
"XX c #8C8C8C",
"oX c #948384",
"OX c #9A8484",
"+X c #948B8B",
"@X c #9C8C8C",
"#X c #8F9190",
"$X c #949494",
"%X c #9B9393",
"&X c #969898",
"*X c #9C9B9B",
"=X c #A48384",
"-X c #AC8385",
";X c #A48A8B",
":X c #AA8A8B",
">X c #B78789",
",X c #A38F90",
"<X c #A19394",
"1X c #AC9394",
"2X c #A39A9B",
"3X c #AC9D9D",
"4X c #B89697",
"5X c #9EA1A1",
"6X c #A4A3A3",
"7X c #A8A5A5",
"8X c #ABACAC",
"9X c #B3A8A9",
"0X c #AEB1B1",
"qX c #B4B3B3",
"wX c #BCB3B3",
"eX c #B7B9B9",
"rX c #BBBCBC",
"tX c #C29799",
"yX c #CBAFB0",
"uX c #C4C5C5",
"iX c #CCCCCC",
"pX c #D2D2D2",
/* pixels */
"> > > > > > n F 9 8 j _ ) ( x 7 H & V / _ _ G 9 p V z & ; ; ; ; : : > > > > > > ",
"S R S S L V Q yX,.y.M.4X`.yXtXu.n.: #XrX>X^.0.$.3.E v & j @.o.U _ U D C D B A C ",
"7XP.%X$X` u E iX9.{ 7.t.0.3X7X8.h * &X9X X!.c.4 h E > #  .y.o.Y.yXa.u.K 1.9. X7X",
"8Xr.z.|.( > W uX5.4 ~ OX;Xv.|.D.p & Q m.8.@XXXj L C ; #  . .U !.a.d.} N 4.8 I @X",
"0X}.[.XXR & R iXL.I +X6X2Xh.&XXXS # V D.b.oX#X}.( > ; $ 8 k ` V.e.c.8 K ( ! I j.",
"5X}._ ! b O Z pX8XXXS.N.XX X&X&XS O v S S m z v > # # ; ^ +XW.oX X+XE ( $X#X+X` ",
"/ / E v - O A pX*XXXN.*.|.$X%X$XS @ > > = : > > n u ; ; }.<XG I.S.D._ ` ` ( ` ! ",
"> : - @ O # C eXqX Xr.8. X$XY.D.R # ; A c.N.eXeXyXtX7 ; ! |.W R g y n n > > > ; ",
"# * # * & = V XXeX%X+X X$XXX+XI C # # I.s.e.2X>X:Xk.2 $ > v > > - = = & @ @ O # ",
"V c c c v > n E 8X*X/.d.XX$X+Xg A = & H.,.D.Q.p.J.d r > i i v ; > v n n b m m n ",
"=XQ.6XK.H.E & C 5XJ.z.d.|.|.XX^ E ; # 9.M.}.m.1.Y.F > u :.>.N n ) Q.S.=XOXE.V.:X",
"2.:.g.*.j A & m _ ) / }.` ( ` ! S = @ Y |.W.k.N E S > - ' d b m S.u.f.0.L.Z.%.v.",
"9.P.$.5 p C # m A ( R C C C b v = O O Q / S b * # # # v 7.G b m /.V.[.5.I.C.$.G ",
"%XOX<.D ^ m # m m : # O O O O @ # # # m R e 1 1 t * # Q 6X%Xm n &X,X XXX$X;X6.Y ",
"P.d._ |.( b @ N 6.O.g ( ( m : g +.5.h.qXuXt.=.%.#.r > 5XiXqXB b +X1X=X;X^.&X$X*X",
"v.8.#XXXQ z @ s =.#.~ ` ) b m m.B.K.).1X7XJ.8.@.' , c >X3X4X3.y d.|.!.i.8.Y.XX X",
"P W Q S > = @ 9 O.T ~ o.h ; m qX{./.9.b.t.OXL.A.f 1 z v.H.<X0 % 2 > q < , i C A ",
": = = & # & ; c.z.XXL.3.g ; m 9X'.M.<.+XV.OXP.x.P . y (.8XwXy ; : * @ @ O O @ $ ",
"C W J Y.|.|.C XX0X@Xh.) P o z qX].q.w #X&X5Xm.4.L . 2 ].uX1Xb - e r r r e : = > ",
"Y.N.*.U.7X2XS |.rX2XG..X( o - $XC.} I $X5X$Xm.+.Z . 1 _.yX9.i u 4.] { $.} w L m ",
"j. .G XXm.8.C .XrX*XOXU._ o $ / Q.k.l.W.XX.Xk.+.B + e >X>X] - C $Xx.' 4.8 d L n ",
"U L.XX X5.s C Y.qX*X=X$X/ o O Q iX~.[ Y #X+Xr.s m O a 8X=X4 . A rXR...) ) }.S z ",
"XX8X5XR.' d V _ rXoX:.L.Y.1 O m 8X!.g Y.&XJ.7.L n + n *XF.< X C 8XR.o.I.XXXXS > ",
"&XeXOXz.d ~ C ! uX%XW.XX_ 1 . c ` 2X` ( / N Z E > # b C p 1 - m Z b p m m V b = ",
"&XwXR.J.l.z.C Z rX*X5X|.}.M   ; m C m > = # $ v ; ; n m m n i i ; : : : : : = = ",
"U.t.b.E.} s V v rX*XL..X XM . : M a r 2 r h S ! ( ` |. XXXn. .] J [.v.L.d.G.! b ",
"7.X.T.+Xl g > > eX@Xl .X` M X @ q y.-.-.y.%.A.8X8X7X1XqX4X,.>.>./.B.'.~.&.5.Z z ",
"7.O.+X&X@X( = v qX6X X#X}.i . + 2 ;.&.%.%.$.6.2XqX^.9.6X:XK./.,.6.[.6Xh.@.I m ; ",
"x c.$X$X|.S # b 7X&X2X$X_ m + + u =XK.' ' 5 w U.eX%XU.7X).:XV.D.[.[.#X.Xd.^ V = ",
"S ` ( E A v @ v #X&X#X X^ V @ + n uXtXd F F ) T.;X8X5X).Z.E.+X.X@X2.P.5Xx.T m = ",
"m v v u v = = n S A A A V v @ O v eXqX X&Xe.@.OX%X7X*X[.m.K.-X6X(.v.2X*XS.c.m # ",
"V Z y e - = > z $ @ + + @ @ O O > .X` ( / s 6 T.XX X=X,.6. X*X$X*X#X@XA.$X` m # ",
"E Z.u.;.5.7.W P M > % % $ $ = = c m > = = = ; Z Q U Y a L E E ! ! Q ( E E E : # ",
"( `.i.Q.[.:X4XB.g.>. . . .| k ! ( / Q R C b : = : = = = = = = # # # # # # # = z ",
"( eX:X9XwX3XqXqX8X=Xv.l.v.#.+. XqX{.C.6X! b m i t t = : = = $ % % $ $ = = : b V ",
"( eXrX8XM.| ;XrXrXrX4X~.*X%X<X*X8X].l.}.n = m o.} 4._ _ A h  .&.9 3.T T T E V V ",
"! &X( Q d q ) ( ` ` ( ` ` XX$X( ^ _ Q S c # v 7.] k 6XqXQ T A.A.A.^.2Xw.A.8X/ c ",
"C b = # # # # # # # # # # & & & # # # & # @ > H 3 L ! _ S Q .X%Xw.e.OX3.~ $XC > ",
"m > > = = = = = # & # # # # # # & # # # & # = t 1 ; = - = b C a 0 z p 0 m V > u ",
"b v v c > > > > ; > ; ; ; > ; > ; ; ; > : : > > c > : = ; u : # # * # $ # # & > "
};
