/* XPM */
static char *adf399a6400a43b2dae49536c72868d3Enev5EU5dLiNgwEy[] = {
/* columns rows colors chars-per-pixel */
"40 40 217 2 ",
"   c #1F1F1F",
".  c #2C1D1D",
"X  c #341616",
"o  c #371B1B",
"O  c #232222",
"+  c #2B2323",
"@  c #2C2C2C",
"#  c #332626",
"$  c #362A2A",
"%  c #392D2D",
"&  c #343434",
"*  c #3C3B3C",
"=  c #4C0404",
"-  c #500202",
";  c #5C0202",
":  c #5C1616",
">  c #640101",
",  c #6B0000",
"<  c #720000",
"1  c #7C0000",
"2  c #631A1A",
"3  c #4A2A28",
"4  c #592828",
"5  c #473838",
"6  c #403E3E",
"7  c #523333",
"8  c #642222",
"9  c #6A2222",
"0  c #602C2C",
"q  c #7A2A2A",
"w  c #6C3A2D",
"e  c #683A3A",
"r  c #444343",
"t  c #474848",
"y  c #4C4D4D",
"u  c #594747",
"i  c #4E5050",
"p  c #545555",
"a  c #6A4747",
"s  c #774747",
"d  c #7D4B4B",
"f  c #6B5A5A",
"g  c #795555",
"h  c #696A6A",
"j  c #796B6B",
"k  c #7C7777",
"l  c #820101",
"z  c #8D0000",
"x  c #860F0F",
"c  c #970000",
"v  c #8F1212",
"b  c #9B1817",
"n  c #A70909",
"m  c #A41111",
"M  c #AA1313",
"N  c #A71D1D",
"B  c #B71917",
"V  c #92201C",
"C  c #862424",
"Z  c #952323",
"A  c #8F3D3D",
"S  c #AD2323",
"D  c #B33535",
"F  c #E31F24",
"G  c #DA262C",
"H  c #D42A2E",
"J  c #DB282E",
"K  c #DB343B",
"L  c #DC343A",
"P  c #E9262A",
"I  c #E92D31",
"U  c #EC3539",
"Y  c #BC6D0E",
"T  c #917323",
"R  c #C77E0F",
"E  c #DD3E43",
"W  c #E73E42",
"Q  c #F03F42",
"!  c #814545",
"~  c #854B4B",
"^  c #8B4D4D",
"/  c #944A4A",
"(  c #845151",
")  c #8E5252",
"_  c #895A5A",
"`  c #935252",
"'  c #9C5555",
"]  c #955858",
"[  c #B44B4B",
"{  c #A35656",
"}  c #AC5656",
"|  c #AB5A5A",
" . c #B45555",
".. c #B95656",
"X. c #B55959",
"o. c #886565",
"O. c #946969",
"+. c #887575",
"@. c #917575",
"#. c #9B7C7C",
"$. c #DE434A",
"%. c #DF464A",
"&. c #DF4D52",
"*. c #D05A5B",
"=. c #E1454A",
"-. c #EB474B",
";. c #F1474A",
":. c #E14D52",
">. c #EB4E52",
",. c #F14F52",
"<. c #E85357",
"1. c #E3565B",
"2. c #E2585E",
"3. c #F25356",
"4. c #E35C61",
"5. c #ED5E61",
"6. c #D2797C",
"7. c #E36166",
"8. c #EE6164",
"9. c #E4656A",
"0. c #EA676B",
"q. c #E5696E",
"w. c #F06A6E",
"e. c #E66D71",
"r. c #EA6D71",
"t. c #F16E71",
"y. c #E7757A",
"u. c #E97579",
"i. c #EC7A7E",
"p. c #F17A7C",
"a. c #7E817D",
"s. c #A39610",
"d. c #E9AF28",
"f. c #BC9D74",
"g. c #C79B57",
"h. c #DDB047",
"j. c #D9B050",
"k. c #C19D69",
"l. c #CDB271",
"z. c #D17E83",
"x. c #E87D82",
"c. c #F27E80",
"v. c #7F8383",
"b. c #888484",
"n. c #8B8C8C",
"m. c #918383",
"M. c #938C8C",
"N. c #9B8C8C",
"B. c #8E9292",
"V. c #919191",
"C. c #9C9494",
"Z. c #979999",
"A. c #9D9C9C",
"S. c #A38C8C",
"D. c #B39E8D",
"F. c #A39595",
"G. c #A49D9D",
"H. c #AC9F9E",
"J. c #BD9698",
"K. c #BCA19F",
"L. c #BDB49D",
"P. c #A4A4A4",
"I. c #ACA3A3",
"U. c #ACABAB",
"Y. c #B4A5A5",
"T. c #BAA2A2",
"R. c #B5ACAD",
"E. c #B9AAAA",
"W. c #BAB5A3",
"Q. c #B7B4AB",
"!. c #AEB0B1",
"~. c #B4B4B4",
"^. c #BBB4B4",
"/. c #BBBABA",
"(. c #C8868A",
"). c #CA898C",
"_. c #D58487",
"`. c #D4888B",
"'. c #DA8B8E",
"]. c #C28F90",
"[. c #DE8D91",
"{. c #C19494",
"}. c #EB8286",
"|. c #EB8689",
" X c #EB8A8D",
".X c #F4898B",
"XX c #ED8D91",
"oX c #F18E90",
"OX c #EC9295",
"+X c #EC969A",
"@X c #EB989B",
"#X c #F49295",
"$X c #F2989A",
"%X c #C5B487",
"&X c #C1B393",
"*X c #EC9EA1",
"=X c #F29FA1",
"-X c #C1B9B9",
";X c #EFA2A5",
":X c #ECA7AA",
">X c #F3A6A8",
",X c #EDAFB1",
"<X c #F1AEB1",
"1X c #F2B2B4",
"2X c #F4B5B7",
"3X c #F4BBBC",
"4X c #F7BEC0",
"5X c #C4C2C2",
"6X c #F7C5C7",
"7X c #F7CDCE",
"8X c #F9CFD1",
"9X c #F8D5D7",
"0X c #F8D7D9",
"qX c #FBE5E6",
"wX c #FCEAEA",
"eX c #FDF4F5",
"rX c #FFFDFD",
/* pixels */
"* 6 6 6 6 r * * 6 r 6 6 6 6 6 r r t r r 6 6 6 r * r 6 r r 5 6 6 & * 6 r 6 6 * * ",
"w B m M M M M v 5 u M m m m m m M M m m m M v 5 r B B B B M M m m n m b m b v w ",
"s.Y  ...} X.X.' j b...} } } } } } X.} } | ..' j +.X....... .} } X.X.} { }  .R T ",
"s.T a.b.B.B.B.B.V.V.V.V.B.B.B.B.B.B.B.B.B.B.V.M.B.B.B.B.B.B.B.B.B.B.V.B.a.a.T T ",
"0 V +.[ s f d ~ ~ ~ ~ ~ ~ ~ ~ ~ ~ ~ ^ ~ ~ ~ ~ ~ ~ ~ ~ ~ ~ ~ ~ / [  .f e j b.: 3 ",
"q Z M.A S.f j H.I.I.I.H.I.H.I.I.H.f.g.D.D.g.k.H.H.H.H.I.H.H.Y.T.T.@.f m. .j : X ",
"5 u U.f I.!.!.~.~.~.~.~.~.~.~.~.R.j.d.%X%Xd.h.W.~.~.~.~.~.~.~.~.!.P.P.U.a +.% + ",
"Z A ^.f A.~.~.~.~.~.~.~.~.~.~.~.~.%Xl.&XQ.l.l.^.~.~.~.~.~.~.~.~.~.!.5XA.u Z.3 2 ",
"n Z E.` U.~.~.~.~.~.~.~.~.~.~.!.Q.T.{.).].J.K.^.~.~.~.~.~.~.~.~.~.~.U.b.a F.9 z ",
"z N E.} ~.~.~.~.~.~.~.~.~.~.E.z.*.=.U I U W W 2.(.E.~.~.~.~.~.~.~.~.P.b.! P.9 < ",
"z V H.' ^.~.~.~.~.~.~.~.-Xz.:.I ,..Xp.I ;.,.,.P I :.(.R.~.~.~.~.~.~.U.M.! I.2 < ",
"1 C I.] /.~.~.~.~.~.~.E.k.U Q U #X>X,.;..X,.#XU I P W 6.E.~.~.~.~.~.~.A.^ I.9 > ",
"X 7 I.` ~.~.~.~.~.~.E._.5.I oXt..X<XU P c.$X#X3.Q P I 5._.E.~.~.~.~.~.U.^ I.3 X ",
"u ~ U.) ~.~.~.~.~.~.(.#XU P 3.>X#X;.c..X$Xt.oX;.Q 5.w.,.#X).~.~.~.~.~.U.^ I.5 # ",
"Z H ^.{ ^.~.~.~.~.J.;Xi.P u.8.,.-.P w.p.>.5.>X8.p.$X8X5.p.*X{.~.~.~.~.U.` I.2 X ",
"C S R.' ~.~.~.~.R._.6X-.P <.>Xu.>.F ,.#Xp.c.5.$Xu.W 6X>X>.6X_.R.~.~.~.R.` Y.4 X ",
"q N I.` ~.~.~.~.J.:X4X:.r.<.>X>Xu.I G u.>Xi.>.i.I J =X3X>.4X:XJ.~.~.~.~.{ E.8 X ",
"q N F.( U.~.~.~.).7X1XW XXOX5.t.$X$X.X|. Xi.$X4XoXOX}. X0.<X7X).~.~.~.~.| -X8 X ",
"0 C N.s U.~.~.R.`.wX<XP G G E x.i.:.1.U r.u.1.,X@X$X:.}.u.<XwX`.R.~.~.~.{ R.4 X ",
"u f A.( R.~.~.R.'.eX4X=.=.G E 4.4.$.K 1.;X<Xi.$.1.4Xe.$X1.3XeX'.E.~.~.!.` I.* # ",
"n S I.` ~.~.~.R.[.rX9X7.*XE J 4.2.2.u.}. X}.E E q.*X3Xq.E 9XrX'.R.~.~.~.( I.8 l ",
"c Z I.) ~.~.~.R.[.eXeXe.e.:.x.x.@X,X|.OXy. Xe.y.y.:XOXH q.eXeX'.R.~.~.U.s M.2 , ",
"z b Y.) R.~.~.R.).wXrX,Xq.4.4.XX&.4.1.K E XX+X%.q.e.7.$.2XrXwX`.R.~.~.I.s b.2 , ",
"z C I.` !.~.~.~.).9XrXeX*X*X:X*X&.E G H H L q.q.}.9.y.}.eXrX8X).~.~.~.I.s M.2 > ",
"= 9 I.' ~.~.~.~.J.,XrXeXOX4.4.E E L J G L x.;X*X+X|.}.;XeXrX,XJ.~.~.~.U.( H.8 - ",
"& p ^.| -X~.~.~.R.`.wX0X9.4X9.L E &.:.L e.4.L L 7.q.q.;X7X7X`.R.~.~.~.~.) I.6 + ",
"q D -X} 5X~.~.~.~.].,XOX:.e.|.>X9.&.|.OX4.G L 4.OXq.6XeXc.6.J.Q.~.~.~./.' E.4 o ",
"C B Y.{ ~.~.~.~.~.R.z.XX+Xx.e.*Xx.4X2XOXx.*X6XeX1X2.7X X4.z.R.~.~.~.~.5X| /.9 X ",
"C S Y.' !.~.~.~.~.~.T.`.9X XE  X8XrXeXx.1.0XrXrX<XE 4.4.6.T.~.~.~.~.~.5X| ^.8 X ",
"q B G.^ U.R.~.~.~.~.~.T.z.*X4XqXeXeX+X2.4.4.qXeX0X8X*Xz.T.~.~.~.~.~.~.^.` I.8 X ",
"q b G.^ U.U.~.~.~.~.~.~.R.(.*X4XqX4Xe.*X;X9.x.0X1X*X).E.~.~.~.~.~.~.~.~.` I.: X ",
"5 u I.~ U.~.~.~.~.~.~.~.~.!.J.(.[.+X:X0X0X:Xx.[.).J.~.~.~.~.~.~.~.~.~.U.~ I.5 O ",
"Z A R.( +.H.~.~.~.~.~.~.~.~.~.~.T.J.).(.(.].J.T.!.~.~.~.~.~.~.~./.!.I.+.( U.7 : ",
"c x m.P._ ! _ @.N.U.~.~.~.~.~.~.W.%X~.W.W.Q.%XW.~.~.~.~.~.^.U.S.#.o.! _ Z.m.: , ",
"z > : j P.P.m.O.( d o.N.U.^.~.~.l.j.Q.j.l.L.d.&X~.~.~.R.N.o.s g O.#.G.C.j 2 ; , ",
"z 1 > ; 0 g #.Z.U.F.@.! d o.N.U.Q.W.~.&X&XQ.W.~.U.N.o.d ! @.F.U.A.+.e : ; ; < z ",
"l l 1 1 < ; > : e +.C.Z.S.@.d ~ ( @.F.!.~.F.#.( ~ ~ @.N.A.C.k a : ; > > l , 1 l ",
"> > > ; ; > , - - = = 5 h v.G.I.N._ ~ ( ( d _ N.G.n.j g 3 o @ = = ; > > , , > > ",
"% % $ # $ % $ % $ # + +   @ * t h n.V.S.S.M.n.h r @ O . . O @ $ $ % % $ + + # % ",
"y i y t y i i i y t t 6 * & @ O     * p p * O   .   @ & * * r t i i i i y t i i "
};
