/* XPM */
static char *_656bdd38c8a4558c09de98fa6ca1c60vdPMlNw1PeIYps7F[] = {
/* columns rows colors chars-per-pixel */
"40 40 256 2 ",
"   c black",
".  c #010101",
"X  c #020202",
"o  c gray1",
"O  c #040404",
"+  c gray2",
"@  c #060606",
"#  c #070707",
"$  c gray3",
"%  c #090909",
"&  c gray4",
"*  c #0B0B0B",
"=  c #0C0C0C",
"-  c gray5",
";  c #0E0E0E",
":  c gray6",
">  c #101010",
",  c #111111",
"<  c gray7",
"1  c #131313",
"2  c gray8",
"3  c #151515",
"4  c #161616",
"5  c gray9",
"6  c #181818",
"7  c #191919",
"8  c gray10",
"9  c #1B1B1B",
"0  c gray11",
"q  c #1D1D1D",
"w  c #1E1E1E",
"e  c gray12",
"r  c #202020",
"t  c gray13",
"y  c #222222",
"u  c #232323",
"i  c gray14",
"p  c #252525",
"a  c gray15",
"s  c #272727",
"d  c #282828",
"f  c gray16",
"g  c #2A2A2A",
"h  c gray17",
"j  c #2C2C2C",
"k  c #2D2D2D",
"l  c gray18",
"z  c #2F2F2F",
"x  c gray19",
"c  c #313131",
"v  c #323232",
"b  c gray20",
"n  c #343434",
"m  c #353535",
"M  c gray21",
"N  c #373737",
"B  c gray22",
"V  c #393939",
"C  c #3A3A3A",
"Z  c gray23",
"A  c #3C3C3C",
"S  c gray24",
"D  c #3E3E3E",
"F  c #3F3F3F",
"G  c gray25",
"H  c #414141",
"J  c gray26",
"K  c #434343",
"L  c #444444",
"P  c gray27",
"I  c #464646",
"U  c gray28",
"Y  c #484848",
"T  c #494949",
"R  c gray29",
"E  c #4B4B4B",
"W  c #4C4C4C",
"Q  c gray30",
"!  c #4E4E4E",
"~  c gray31",
"^  c #505050",
"/  c #515151",
"(  c gray32",
")  c #535353",
"_  c gray33",
"`  c #555555",
"'  c #565656",
"]  c gray34",
"[  c #585858",
"{  c gray35",
"}  c #5A5A5A",
"|  c #5B5B5B",
" . c gray36",
".. c #5D5D5D",
"X. c gray37",
"o. c #5F5F5F",
"O. c #606060",
"+. c gray38",
"@. c #626262",
"#. c gray39",
"$. c #646464",
"%. c #656565",
"&. c gray40",
"*. c #676767",
"=. c #686868",
"-. c DimGray",
";. c #6A6A6A",
":. c gray42",
">. c #6C6C6C",
",. c #6D6D6D",
"<. c gray43",
"1. c #6F6F6F",
"2. c gray44",
"3. c #717171",
"4. c #727272",
"5. c gray45",
"6. c #747474",
"7. c gray46",
"8. c #767676",
"9. c #777777",
"0. c gray47",
"q. c #797979",
"w. c gray48",
"e. c #7B7B7B",
"r. c #7C7C7C",
"t. c gray49",
"y. c #7E7E7E",
"u. c gray50",
"i. c #808080",
"p. c #818181",
"a. c gray51",
"s. c #838383",
"d. c #848484",
"f. c gray52",
"g. c #868686",
"h. c gray53",
"j. c #888888",
"k. c #898989",
"l. c gray54",
"z. c #8B8B8B",
"x. c gray55",
"c. c #8D8D8D",
"v. c #8E8E8E",
"b. c gray56",
"n. c #909090",
"m. c gray57",
"M. c #929292",
"N. c #939393",
"B. c gray58",
"V. c #959595",
"C. c gray59",
"Z. c #979797",
"A. c #989898",
"S. c gray60",
"D. c #9A9A9A",
"F. c #9B9B9B",
"G. c gray61",
"H. c #9D9D9D",
"J. c gray62",
"K. c #9F9F9F",
"L. c #A0A0A0",
"P. c gray63",
"I. c #A2A2A2",
"U. c gray64",
"Y. c #A4A4A4",
"T. c #A5A5A5",
"R. c gray65",
"E. c #A7A7A7",
"W. c gray66",
"Q. c #A9A9A9",
"!. c #AAAAAA",
"~. c gray67",
"^. c #ACACAC",
"/. c gray68",
"(. c #AEAEAE",
"). c #AFAFAF",
"_. c gray69",
"`. c #B1B1B1",
"'. c #B2B2B2",
"]. c gray70",
"[. c #B4B4B4",
"{. c gray71",
"}. c #B6B6B6",
"|. c #B7B7B7",
" X c gray72",
".X c #B9B9B9",
"XX c gray73",
"oX c #BBBBBB",
"OX c #BCBCBC",
"+X c gray74",
"@X c gray",
"#X c gray75",
"$X c #C0C0C0",
"%X c #C1C1C1",
"&X c gray76",
"*X c #C3C3C3",
"=X c gray77",
"-X c #C5C5C5",
";X c #C6C6C6",
":X c gray78",
">X c #C8C8C8",
",X c gray79",
"<X c #CACACA",
"1X c #CBCBCB",
"2X c gray80",
"3X c #CDCDCD",
"4X c #CECECE",
"5X c gray81",
"6X c #D0D0D0",
"7X c gray82",
"8X c #D2D2D2",
"9X c LightGray",
"0X c gray83",
"qX c #D5D5D5",
"wX c gray84",
"eX c #D7D7D7",
"rX c #D8D8D8",
"tX c gray85",
"yX c #DADADA",
"uX c gray86",
"iX c gainsboro",
"pX c #DDDDDD",
"aX c gray87",
"sX c #DFDFDF",
"dX c gray88",
"fX c #E1E1E1",
"gX c #E2E2E2",
"hX c gray89",
"jX c #E4E4E4",
"kX c gray90",
"lX c #E6E6E6",
"zX c #E7E7E7",
"xX c gray91",
"cX c #E9E9E9",
"vX c #EAEAEA",
"bX c gray92",
"nX c #ECECEC",
"mX c gray93",
"MX c #EEEEEE",
"NX c #EFEFEF",
"BX c gray94",
"VX c #F1F1F1",
"CX c gray95",
"ZX c #F3F3F3",
"AX c #F4F4F4",
"SX c gray96",
"DX c #F6F6F6",
"FX c gray97",
"GX c #F8F8F8",
"HX c #F9F9F9",
"JX c gray98",
"KX c #FBFBFB",
"LX c gray99",
"PX c #FDFDFD",
"IX c #FEFEFE",
"UX c white",
/* pixels */
"C A C C C Z F 3.5.2.1.3.5.1.1.7.,.g W @.,.2.2.>.=...D z m z z z x n C A Z A Z A ",
"} ' }  ...~ #.zXpXrXsXfXsXiXwXxXK.y S.,X].(.W.Q.~.Z.F h <.l.h.x.y.:.{ W ) ~ / / ",
"'.`.^.G.p.v $.qX].`.^._.]._.(.!.! p I.).j.S.G.Z.n.3.M p Z.cX0X9XtX7XXX'.`.).).`.",
"{.'.(.K.2.x *.iXP.I.U.H.L.Z.D.J.~ p %.D.G.Z.L.K.d.^ Z p C.2XG.G.I./.Y.Y.E.W.Q.I.",
"(.V.K.l.} p O.fXS.B.R.J.x.b.D.V.Q g Y e.T.A.M.Z.s.V M p H.<XA.c.v.l.b.n.V.A.c.C.",
"J.J.M.*.P r / 2X~.K.A.S.z.c.F.h._ q H ! } D D C N a r B r.yXD.c.M.N.M.I.V.I.H.m.",
"8.7.=.H N y L +X!.S.f.f.J.b.D.d...d C D w a h k N A V P =.OXb.n.B.l.t.3.1.6.<.3.",
"B b c d u h D I.OXj.h.c.D.V.a.Z.o.h n ] 0.F.OX&X%XU.+.N :.m.;.O.] Q I J C n N n ",
"s j g k c V H t.:XV.n.c.n.k.S.f._ h u p.0XqX!.L.T.p.C h V B b V v N g d s p p p ",
"R D A Z S m K #.{.S.F.C.V.l.K.y.] n y m.yXc.n.m.n.a.n j B R T c m A D L H H K G ",
"(.!.Q.R.Y.$.p ~ R.W.b.m.v.b.V.i.;.M 8 B.,Xn.I.H.R.t.M s f.uXS.V u.'.`.`.`.`.]._.",
"].!.).'.M...h R 0.W.Z.V.c.h.u.>.=.z e c.$XG.5.q.>.o.A h #X*X .V #XwX*X$X=X%X#X*X",
"G.n.Z.Z.t.( d E } r.&.=.' / L D l e 8 3.8.` C t i h i A ;X!.X.A *X_.B.M.A.k.d.b.",
"P.V.B.S.a.U d R Z i r 0 5 w 8 t e r w Y ` A N x D d p +.6X~.X.C `.K.A.A.A.b.g.V.",
"b.a.p.J.0.U u _ /.U.k.e.,.K N $.z.S.F.{.1X4X6X<XE.T c /.2XG._ V Q./.C.G.S.l.p.M.",
"Z.K.J.M.:.L 0 z.5XI.'.!.W.^ R I.jX<X+X}.}.XX X|.k.V b *X'.Z.! n n.A.s.y.s.h.V.Z.",
"0.>.3.O.F V 6 k.`.S.F.D.f.x Y oX+XV.c.Z.C.l.D.b.5.c b &X{.Z.J B A L F A P P } @.",
"c g y w 0 a d m.].m.Y.F.;.k J OX^.C.C.z.f.z.B.G.>.n b $X{.B.S K k w f l a a s j ",
"~ >.j.F.M.D.^ p.OXp.C.Z.7.b v .X@Xk.b.z.a.M.p.K.4.z m #X~.U.G G ;.4...W J K M C ",
"p.2XyX,X@X+X^ y.OXC.a.T.f.B b U.3XV.v.m.y.m.B.Z.$.h N XXT.B.Z ^ -X/.-XE.U.W.2.T ",
"V.:XS.V.Z.J.| g.}.N.R.D.g.J t e.pX!.Z.m.m.d.x.N.| k A {._.V.M ] #Xg.U.Y.Q.Y.>.G ",
"A.@Xm.F.I.H.' y.OXA.M.K.f.J u %.qX_.A.c.k.l.F.M.W a L |.(.F.Z ~ -XF.F.M.B.L.{ D ",
"C.%XD.D.H.U.R w.,Xk.Z.L.u.P e Y [.&Xc.A.A.K.N.r.K t I E.N.[ b ! XXI.E.G.C.R.o.C ",
"A.*XH.K.A.I.^ =.4Xl.S.M.h.Y q F i.XXk.4. .R K B c g Y ( J D U H ' I ^ ^ ! ! J m ",
"C.$Xb.H.D.L.` ! 2XC.L.B.f.P 8 C E E A f w t u e u s K E I Q W Y c z d f f f j N ",
"A.=XA.N.J.G.[ n 2XD.f.F.f.P 8 M ( R U U Q ] ) ` ' | ..<.g.x.b.b.N.M.N.N.M.F.1.K ",
"N.@XG.G.U.d.h M <XZ.m.v.a.! i r 7.OX+X$X#X@XOX+X+X&X4XaXlXvXkXkXkXgXkXwXyX#X{ B ",
"c.OXD.D.L.r.d F $XI.m.S.y.Q h 2 3.5XeXpXuX9X8XrX9XpX0X3X#X`.W.).^.D.).R.'.M.I B ",
"u./.U.z.*.@.s H _.N.D.H.t.( f 5 ..qX).k.m.B.A.S.P.n.J.P.D.f.x.V.A.m.D.J.K.d.T b ",
"O.b.q.&. .S d H D.H.m.n.4.) d 6 Z qX=XC.m.B.k.N.V.M.G.K.h.V.S.h.A.f.x.m.S.j.T v ",
"R m p M H V B K X.| [ [ ( R g 7 n =X3XB.K.K.b.B.g.k.C.N.F.n.m.B.h.n.f.Z.u.0.U h ",
"! [ ( I n w n G k w i y p p p q m m.u.2.2.,.d.V.K.v.k.l.v.g.N.V.B.F.n.z.M.d.Y j ",
"+.{.;X*XOXv.q.o.J c l f h s l h V T m g l z c | *.1.%.=.-.-.-.=.-.&.-.=.-.$.M b ",
"<.5X[./.5X6XrX$X}.'.)./.I.J.b.h.0.:.#.o.^ Y B j x c M m g k z s d d s d a f g J ",
":.8XJ.H.v.A.S.`.].XX].@XoX X|.+X%X1X<X%X,.K W I T V a c x N k f g f g h j B U ~ ",
">.>XW.K.v.K.n.Y.v.m.s.j.v.h.V.H.J.T..Xv.J b Q !.=X^.k.9.[ ! 8.a.p.a.i.e.1.O.^ ( ",
"3.L.-.,.$.3.1.6.1.=.2.=.;.2.3.1.,.:.3.+.I g F =XOX,X=X:X@.:.,X+X|.OX'.XXY. X1.C ",
"` P i d f a s a d g d f f d s s d d s f z q b 8.q.t.&.w.) H.!.Z.P.P.G.H.L.L./ V ",
"~ S C x l x l z s j l d j s l a z a z a l k b T H n k k l } ..W ( W ^ ~ / ! M D ",
"I Y P J L L L H S S S S S S S S S S S S S S Z P T K C Z C D V d g h f g g h j D "
};
