/* XPM */
static char *_a4573a9c89f450ac23dbf9f9b27a0232RyfRrHKjkFXK8C1[] = {
/* columns rows colors chars-per-pixel */
"50 50 28 1 ",
"  c #010000",
". c #010100",
"X c #020100",
"o c #020001",
"O c #030200",
"+ c #030102",
"@ c #020003",
"# c #040000",
"$ c #050100",
"% c #040300",
"& c #040301",
"* c #060200",
"= c #070200",
"- c #070300",
"; c #060201",
": c #040203",
"> c #070302",
", c #060203",
"< c #030400",
"1 c #050400",
"2 c #050402",
"3 c #060503",
"4 c #050304",
"5 c #070604",
"6 c #080300",
"7 c #0A0200",
"8 c #080202",
"9 c #080705",
/* pixels */
"OOOOOOOO&&&&&&&&22222222&&2222&&88888&8888>>>>88&8",
"&&&&&&&&&&&&&&&&22222222&&2222&&88&88888&8>>>8888&",
"&&&&&&&&&&&&&&&&22222222&&2222&&>7>>8>>788>>88&88&",
"&&&&&&&&&&&&&&&&22222222&&2222&&>>>>>>>>88>7888888",
"OOOO&&&&&&&&&&&&22222222&&2222&&88&>8888&8>>>>&8>>",
"OOOOOOOO&&&&&&&&22222222&&2222&&88888&888&>>>>8&>8",
"OOOOOOOO&&&&&&&&22222222&&2222&&8&8&&&8&&888>>&8>7",
"OOOOOOOO&&&&&&&&22222222&&2222&&&8&8&8&&8&8&>>8&77",
"OO@O@OOOOOO@@4442O2O2222422&OOOOOOO&&&&&8&8&8&8&>>",
"@O@OOO@OO@O@444422O2O22222&OOOOOOO&&&&&O&&&888&&>7",
"O@OOO@O@O@O@O@442O2O222222OOOOOOOOOOOOOO&&&&&&&&>>",
"OOO@O@OOOOO@O44@O2O2O29222&OOOOOOOOOOOOOO&&&&&&&>>",
"@OO@OO@O@OO@@O@@2O2O&22442OOOOOOOO@@@O@&O&444&4&>2",
"@OO@O@OO@OO@O@O@OOOO<222544OOOOO@OOOOO&@O@4@444O22",
"OOOOOO@@OOOOOO@@OOOOO22222OOOOOO@OOOO@@&O@&44&222&",
"O@@O@OOOO@@O@OOOOOOO<22222OOOOOOOO@@OO&@@O4O22>2&&",
"OOOOOOOOOOOOOOOOOOOOOOOOOOOOOOOO@OOOOO&&&&88>>>>88",
"OOOOOOOOOOOOOOOOOOOOOOOOOOOOOOOOOOOOOO&O&8&8>77>&&",
"OOOOOOOOOOOOOOOOOOOOOOOOOOOOOOOOO@OOOOOO8&88>>7>88",
"OOOOOOOOOOOOOOOOOOOOOOOOOOOOOOOOO@OOOOOO&8&87>>>>8",
"OOOOOOOOOOOOOOOOOOOOOOOOOOOOOOOOOOOOOO&&8&828>>7>>",
"OOOOOOOOOOOOOOOOOOOOOOOOOOOOOOOO@OOOOO&&&888>>>7>>",
"OOOOOOOOOOOOOOOOOOOOOOOOOOOOOOOOOOOOOO&&8&8&>>>>&8",
"OOOOOOOOOOOOOOOOOOOOOOOOOOOOOOOOOOOOOO&&&888>77>88",
"OOOOOOOOOOOOOOOOOOOOOOOOOOOOOOOO@OOOOO&&&&&88&8&&8",
"OOOOOOOOOOOOOOOOOOOOOOOOOOOOOOOOOOOOOO&O8&8&88888&",
"OOOOOOOOOOOOOOOOOOOOOOOOOOOOOOOOO@OOOOOO&&&88888&&",
"OOOOOOOOOOOOOOOOOOOOOOOOOOOOOOOOO@OOOOOO8&8&88&88&",
"OOOOOOOOOOOOOOOOOOOOOOOOOOOOOOOOOOOOOO&&&8&888&&&&",
"OOOOOOOOOOOOOOOOOOOOOOOOOOOOOOOO@OOOOO&&&&8&88888&",
"OOOOOOOOOOOOOOOOOOOOOOOOOOOOOOOOOOOOOO&&&&&8888&&&",
"OOOOOOOOOOOOOOOOOOOOOOOOOOOOOOOOOOOOOO&&8&8&8&88&&",
"OOOO2OOOOOOOOOOOOOOOOOOOOOOOOOOOOOOOOOOOOO8&8&88&O",
"OOOOOOOOOOOOOOOOOOOOOOOOOOOOOOOOOOOOOOOOOO&888&8&O",
"OOOO2OOOOOOOOOOOOOOOOOOOOOOOOOOOOOOOOOOOOOO&>>8>&&",
"OOOOO2OOOOOOOOOOOOOOOOOOOOOOOOOOOOOOOOOOOO&&>>>>&&",
"OO22<2OOOOOOOOOOOOOOOOOOOOOOOOOOOOOOOOOOO&&8>>>>&&",
"2@222<2OOOOOOOOOOOOOOOOOOOOOOOOOOOOOOOOOO&8&>>>>&&",
"4942222OOOOOOOOOOOOOOOOOOOOOOOOOOOOOOOOOOO&8>>>>&&",
"9999422OOOOOOOOOOOOOOOOOOOOOOOOOOOOOOOOOOO8&>>>>&&",
"OOOOOOOOOOOOOOOOOOOOOOOOOOOOOOOOOOOOOOOOOO8&8&8&&&",
"OOOOOOOOOOOOOOOOOOOOOOOOOOOOOOOOOOOOOOOOOO&&&8&8&&",
"OOOOOOOOOOOOOOOOOOOOOOOOOOOOOOOOOOOOOOOOOOO&8&8&&8",
"OOOOOOOOOOOOOOOOOOOOOOOOOOOOOOOOOOOOOOOOOOO&&8&88&",
"OOOOOOOOOOOOOOOOOOOOOOOOOOOOOOOOOOOOOOOOOO&88&8&88",
"OOOOOOOOOOOOOOOOOOOOOOOOOOOOOOOOOOOOOOOOO&&&&8&88&",
"OOOOOOOOOOOOOOOOOOOOOOOOOOOOOOOOOOOOOOOOOO&88&8&88",
"OOOOOOOOOOOOOOOOOOOOOOOOOOOOOOOOOOOOOOOOOO&8&8&8&&",
"OOOOOOOOOOOOOOOOOOOOOOOOOOOOOOOOOOOOOO@O@O@@<422&&",
"OOOOOOOOOOOOOOOOOOOOOOOOOOOOOOOOOOOOOO@@@@O@222O&8"
};
