/* XPM */
static char *_ee983bba0ae4032a9c70a81bbc26047kg3PLEl2SD8WMe7d[] = {
/* columns rows colors chars-per-pixel */
"40 40 26 1 ",
"  c None",
". c #230000",
"X c #280000",
"o c #290000",
"O c #3A0000",
"+ c #400000",
"@ c #430000",
"# c #510000",
"$ c #590000",
"% c #620000",
"& c #660000",
"* c #6A0000",
"= c #760000",
"- c #790000",
"; c #890000",
": c #8C0000",
"> c #CA0000",
", c #D10000",
"< c #D80000",
"1 c #DB0000",
"2 c #DC0000",
"3 c #FB0000",
"4 c #FC0000",
"5 c #FD0000",
"6 c #FE0000",
"7 c red",
/* pixels */
"                                        ",
"                                        ",
"                                        ",
"                                        ",
"                                        ",
"                                        ",
"                                        ",
"                                        ",
"                                        ",
"                                        ",
"                                        ",
"                                        ",
"                                        ",
"                                        ",
"                                        ",
"                                        ",
"                  @=;-@                 ",
"                 #,373>$                ",
"                O>77777<o               ",
"                =3777773*               ",
"                ;7777777:               ",
"                =7777777*               ",
"                @,777771.               ",
"                 $17771%                ",
"                  o&:*.                 ",
"                                        ",
"                                        ",
"                                        ",
"                                        ",
"                                        ",
"                                        ",
"                                        ",
"                                        ",
"                                        ",
"                                        ",
"                                        ",
"                                        ",
"                                        ",
"                                        ",
"                                        "
};
